<svg width="9" height="19" viewBox="0 0 9 19" fill="none" xmlns="http://www.w3.org/2000/svg">
<path d="M7.6125 4.43329H8.8125V14.1312C8.8125 15.4243 8.38125 16.526 7.51875 17.4364C6.65625 18.3468 5.61875 18.802 4.40625 18.802C3.19375 18.802 2.15625 18.3468 1.29375 17.4364C0.43125 16.526 0 15.4243 0 14.1312V3.60204C0 2.65204 0.3125 1.84718 0.9375 1.18746C1.5625 0.527737 2.31875 0.197876 3.20625 0.197876C4.09375 0.197876 4.85 0.527737 5.475 1.18746C6.1 1.84718 6.4125 2.65204 6.4125 3.60204V12.4687C6.4125 13.0493 6.2125 13.5441 5.8125 13.9531C5.4125 14.3621 4.9375 14.5666 4.3875 14.5666C3.8375 14.5666 3.36875 14.3621 2.98125 13.9531C2.59375 13.5441 2.4 13.0493 2.4 12.4687V4.43329H3.6V12.4687C3.6 12.6798 3.68125 12.8711 3.84375 13.0427C4.00625 13.2142 4.19375 13.3 4.40625 13.3C4.61875 13.3 4.80625 13.2142 4.96875 13.0427C5.13125 12.8711 5.2125 12.6798 5.2125 12.4687V3.60204C5.2125 3.02149 5.0125 2.5201 4.6125 2.09788C4.2125 1.67565 3.7375 1.46454 3.1875 1.46454C2.6375 1.46454 2.16875 1.67565 1.78125 2.09788C1.39375 2.5201 1.2 3.02149 1.2 3.60204V14.1312C1.2 15.0812 1.5125 15.8861 2.1375 16.5458C2.7625 17.2055 3.51875 17.5354 4.40625 17.5354C5.29375 17.5354 6.05 17.2055 6.675 16.5458C7.3 15.8861 7.6125 15.0812 7.6125 14.1312V4.43329Z" fill="black"/>
</svg>
