<svg width="1440" height="64" viewBox="0 0 1440 64" fill="none" xmlns="http://www.w3.org/2000/svg">
<g clip-path="url(#clip0)">
<rect width="1440" height="64" fill="#00798C" fill-opacity="0.89"/>
<path d="M1492.65 -237V-169.87H1425.52V-102.74H1358.39V-35.61H1291.26V31.52H1224.13V98.65H1157V165.78H1224.13H1559.78V-169.87V-237H1492.65Z" fill="#00798C"/>
<path d="M48 -15H81V18L48 -15Z" fill="#00798C"/>
<path d="M81 -15H113V18L81 -15Z" fill="#00798C"/>
<path d="M113 -15H146V18L113 -15Z" fill="#00798C"/>
<path d="M146 -15H179V18L146 -15Z" fill="#00798C"/>
<path d="M48 18H81V50L48 18Z" fill="#00798C"/>
<path d="M81 18H113V50L81 18Z" fill="#00798C"/>
<path d="M113 18H146V50L113 18Z" fill="#00798C"/>
<path d="M146 18H179V50L146 18Z" fill="#00798C"/>
<path d="M447 50C453.63 50 459.989 52.6339 464.678 57.3223C469.366 62.0107 472 68.3696 472 75H497C497 61.7392 491.732 49.0214 482.355 39.6446C472.979 30.2678 460.261 25 447 25C433.739 25 421.021 30.2678 411.645 39.6446C402.268 49.0214 397 61.7392 397 75H422C422 68.3696 424.634 62.0107 429.322 57.3223C434.011 52.6339 440.37 50 447 50Z" fill="#00798C"/>
<path d="M973.156 -0.57017C973.156 -0.158409 973.034 0.244085 972.805 0.58621C972.576 0.928336 972.25 1.19466 971.87 1.35145C971.489 1.50823 971.07 1.54844 970.667 1.46686C970.263 1.38528 969.893 1.1856 969.603 0.89324C969.313 0.600886 969.116 0.229078 969.038 -0.175179C968.96 -0.579435 969.003 -0.997866 969.163 -1.37731C969.323 -1.75675 969.592 -2.0801 969.936 -2.3064C970.28 -2.5327 970.684 -2.65174 971.095 -2.64837C971.644 -2.64387 972.168 -2.42294 972.554 -2.03368C972.94 -1.64442 973.157 -1.11842 973.156 -0.57017Z" fill="#00798C"/>
<path d="M1007.12 -0.57017C1007.12 -0.158409 1007 0.244085 1006.77 0.58621C1006.54 0.928336 1006.22 1.19466 1005.84 1.35145C1005.46 1.50823 1005.04 1.54844 1004.63 1.46686C1004.23 1.38528 1003.86 1.1856 1003.57 0.89324C1003.28 0.600886 1003.08 0.229078 1003.01 -0.175179C1002.93 -0.579435 1002.97 -0.997866 1003.13 -1.37731C1003.29 -1.75675 1003.56 -2.0801 1003.9 -2.3064C1004.25 -2.5327 1004.65 -2.65174 1005.06 -2.64837C1005.61 -2.64387 1006.14 -2.42294 1006.52 -2.03368C1006.91 -1.64442 1007.12 -1.11842 1007.12 -0.57017Z" fill="#00798C"/>
<path d="M1041.09 -0.57017C1041.09 -0.158409 1040.97 0.244085 1040.74 0.58621C1040.51 0.928336 1040.19 1.19466 1039.8 1.35145C1039.42 1.50823 1039.01 1.54844 1038.6 1.46686C1038.2 1.38528 1037.83 1.1856 1037.54 0.89324C1037.25 0.600886 1037.05 0.229078 1036.97 -0.175179C1036.89 -0.579435 1036.94 -0.997866 1037.1 -1.37731C1037.26 -1.75675 1037.53 -2.0801 1037.87 -2.3064C1038.22 -2.5327 1038.62 -2.65174 1039.03 -2.64837C1039.58 -2.64387 1040.1 -2.42294 1040.49 -2.03368C1040.87 -1.64442 1041.09 -1.11842 1041.09 -0.57017Z" fill="#00798C"/>
<path d="M1075.06 -0.57017C1075.06 -0.158409 1074.94 0.244085 1074.71 0.58621C1074.48 0.928336 1074.15 1.19466 1073.77 1.35145C1073.39 1.50823 1072.97 1.54844 1072.57 1.46686C1072.17 1.38528 1071.79 1.1856 1071.51 0.89324C1071.22 0.600886 1071.02 0.229078 1070.94 -0.175179C1070.86 -0.579435 1070.91 -0.997866 1071.07 -1.37731C1071.23 -1.75675 1071.49 -2.0801 1071.84 -2.3064C1072.18 -2.5327 1072.59 -2.65174 1073 -2.64837C1073.55 -2.64387 1074.07 -2.42294 1074.46 -2.03368C1074.84 -1.64442 1075.06 -1.11842 1075.06 -0.57017Z" fill="#00798C"/>
<path d="M1109.03 -0.57017C1109.03 -0.158409 1108.9 0.244085 1108.68 0.58621C1108.45 0.928336 1108.12 1.19466 1107.74 1.35145C1107.36 1.50823 1106.94 1.54844 1106.54 1.46686C1106.13 1.38528 1105.76 1.1856 1105.47 0.89324C1105.18 0.600886 1104.99 0.229078 1104.91 -0.175179C1104.83 -0.579435 1104.87 -0.997866 1105.03 -1.37731C1105.19 -1.75675 1105.46 -2.0801 1105.81 -2.3064C1106.15 -2.5327 1106.55 -2.65174 1106.97 -2.64837C1107.51 -2.64387 1108.04 -2.42294 1108.42 -2.03368C1108.81 -1.64442 1109.03 -1.11842 1109.03 -0.57017Z" fill="#00798C"/>
<path d="M973.156 22.6145C973.156 23.0263 973.034 23.4287 972.805 23.7708C972.576 24.1129 972.25 24.3793 971.87 24.5361C971.489 24.6929 971.07 24.733 970.667 24.6514C970.263 24.5698 969.893 24.3703 969.603 24.0779C969.313 23.7856 969.116 23.4136 969.038 23.0094C968.96 22.6051 969.003 22.1867 969.163 21.8073C969.323 21.4278 969.592 21.1045 969.936 20.8782C970.28 20.6519 970.684 20.5328 971.095 20.5362C971.367 20.5362 971.637 20.5901 971.888 20.6948C972.139 20.7994 972.367 20.9527 972.559 21.1459C972.75 21.3391 972.902 21.5684 973.005 21.8205C973.107 22.0725 973.159 22.3424 973.156 22.6145Z" fill="#00798C"/>
<path d="M1007.12 22.6145C1007.12 23.0263 1007 23.4287 1006.77 23.7708C1006.54 24.1129 1006.22 24.3793 1005.84 24.5361C1005.46 24.6929 1005.04 24.733 1004.63 24.6514C1004.23 24.5698 1003.86 24.3703 1003.57 24.0779C1003.28 23.7856 1003.08 23.4136 1003.01 23.0094C1002.93 22.6051 1002.97 22.1867 1003.13 21.8073C1003.29 21.4278 1003.56 21.1045 1003.9 20.8782C1004.25 20.6519 1004.65 20.5328 1005.06 20.5362C1005.34 20.5362 1005.6 20.5901 1005.86 20.6948C1006.11 20.7994 1006.34 20.9527 1006.53 21.1459C1006.72 21.3391 1006.87 21.5684 1006.97 21.8205C1007.07 22.0725 1007.13 22.3424 1007.12 22.6145Z" fill="#00798C"/>
<path d="M1041.09 22.6145C1041.09 23.0263 1040.97 23.4287 1040.74 23.7708C1040.51 24.1129 1040.19 24.3793 1039.8 24.5361C1039.42 24.6929 1039.01 24.733 1038.6 24.6514C1038.2 24.5698 1037.83 24.3703 1037.54 24.0779C1037.25 23.7856 1037.05 23.4136 1036.97 23.0094C1036.89 22.6051 1036.94 22.1867 1037.1 21.8073C1037.26 21.4278 1037.53 21.1045 1037.87 20.8782C1038.22 20.6519 1038.62 20.5328 1039.03 20.5362C1039.3 20.5362 1039.57 20.5901 1039.82 20.6948C1040.07 20.7994 1040.3 20.9527 1040.49 21.1459C1040.69 21.3391 1040.84 21.5684 1040.94 21.8205C1041.04 22.0725 1041.09 22.3424 1041.09 22.6145Z" fill="#00798C"/>
<path d="M1075.06 22.6145C1075.06 23.0263 1074.94 23.4287 1074.71 23.7708C1074.48 24.1129 1074.15 24.3793 1073.77 24.5361C1073.39 24.6929 1072.97 24.733 1072.57 24.6514C1072.17 24.5698 1071.79 24.3703 1071.51 24.0779C1071.22 23.7856 1071.02 23.4136 1070.94 23.0094C1070.86 22.6051 1070.91 22.1867 1071.07 21.8073C1071.23 21.4278 1071.49 21.1045 1071.84 20.8782C1072.18 20.6519 1072.59 20.5328 1073 20.5362C1073.27 20.5362 1073.54 20.5901 1073.79 20.6948C1074.04 20.7994 1074.27 20.9527 1074.46 21.1459C1074.65 21.3391 1074.8 21.5684 1074.91 21.8205C1075.01 22.0725 1075.06 22.3424 1075.06 22.6145Z" fill="#00798C"/>
<path d="M1109.03 22.6145C1109.03 23.0263 1108.9 23.4287 1108.68 23.7708C1108.45 24.1129 1108.12 24.3793 1107.74 24.5361C1107.36 24.6929 1106.94 24.733 1106.54 24.6514C1106.13 24.5698 1105.76 24.3703 1105.47 24.0779C1105.18 23.7856 1104.99 23.4136 1104.91 23.0094C1104.83 22.6051 1104.87 22.1867 1105.03 21.8073C1105.19 21.4278 1105.46 21.1045 1105.81 20.8782C1106.15 20.6519 1106.55 20.5328 1106.97 20.5362C1107.24 20.5362 1107.51 20.5901 1107.76 20.6948C1108.01 20.7994 1108.24 20.9527 1108.43 21.1459C1108.62 21.3391 1108.77 21.5684 1108.87 21.8205C1108.98 22.0725 1109.03 22.3424 1109.03 22.6145Z" fill="#00798C"/>
<path d="M973.156 45.7819C973.156 46.1936 973.034 46.5961 972.805 46.9383C972.576 47.2804 972.25 47.5467 971.87 47.7035C971.489 47.8603 971.07 47.9005 970.667 47.8189C970.263 47.7373 969.893 47.5376 969.603 47.2453C969.313 46.9529 969.116 46.581 969.038 46.1768C968.96 45.7725 969.003 45.3542 969.163 44.9747C969.323 44.5953 969.592 44.2718 969.936 44.0455C970.28 43.8192 970.684 43.7003 971.095 43.7037C971.644 43.7082 972.168 43.9291 972.554 44.3184C972.94 44.7076 973.157 45.2336 973.156 45.7819Z" fill="#00798C"/>
<path d="M1007.12 45.7819C1007.12 46.1936 1007 46.5961 1006.77 46.9383C1006.54 47.2804 1006.22 47.5467 1005.84 47.7035C1005.46 47.8603 1005.04 47.9005 1004.63 47.8189C1004.23 47.7373 1003.86 47.5376 1003.57 47.2453C1003.28 46.9529 1003.08 46.581 1003.01 46.1768C1002.93 45.7725 1002.97 45.3542 1003.13 44.9747C1003.29 44.5953 1003.56 44.2718 1003.9 44.0455C1004.25 43.8192 1004.65 43.7003 1005.06 43.7037C1005.61 43.7082 1006.14 43.9291 1006.52 44.3184C1006.91 44.7076 1007.12 45.2336 1007.12 45.7819Z" fill="#00798C"/>
<path d="M1041.09 45.7819C1041.09 46.1936 1040.97 46.5961 1040.74 46.9383C1040.51 47.2804 1040.19 47.5467 1039.8 47.7035C1039.42 47.8603 1039.01 47.9005 1038.6 47.8189C1038.2 47.7373 1037.83 47.5376 1037.54 47.2453C1037.25 46.9529 1037.05 46.581 1036.97 46.1768C1036.89 45.7725 1036.94 45.3542 1037.1 44.9747C1037.26 44.5953 1037.53 44.2718 1037.87 44.0455C1038.22 43.8192 1038.62 43.7003 1039.03 43.7037C1039.58 43.7082 1040.1 43.9291 1040.49 44.3184C1040.87 44.7076 1041.09 45.2336 1041.09 45.7819Z" fill="#00798C"/>
<path d="M1075.06 45.7819C1075.06 46.1936 1074.94 46.5961 1074.71 46.9383C1074.48 47.2804 1074.15 47.5467 1073.77 47.7035C1073.39 47.8603 1072.97 47.9005 1072.57 47.8189C1072.17 47.7373 1071.79 47.5376 1071.51 47.2453C1071.22 46.9529 1071.02 46.581 1070.94 46.1768C1070.86 45.7725 1070.91 45.3542 1071.07 44.9747C1071.23 44.5953 1071.49 44.2718 1071.84 44.0455C1072.18 43.8192 1072.59 43.7003 1073 43.7037C1073.55 43.7082 1074.07 43.9291 1074.46 44.3184C1074.84 44.7076 1075.06 45.2336 1075.06 45.7819Z" fill="#00798C"/>
<path d="M1109.03 45.7819C1109.03 46.1936 1108.9 46.5961 1108.68 46.9383C1108.45 47.2804 1108.12 47.5467 1107.74 47.7035C1107.36 47.8603 1106.94 47.9005 1106.54 47.8189C1106.13 47.7373 1105.76 47.5376 1105.47 47.2453C1105.18 46.9529 1104.99 46.581 1104.91 46.1768C1104.83 45.7725 1104.87 45.3542 1105.03 44.9747C1105.19 44.5953 1105.46 44.2718 1105.81 44.0455C1106.15 43.8192 1106.55 43.7003 1106.97 43.7037C1107.51 43.7082 1108.04 43.9291 1108.42 44.3184C1108.81 44.7076 1109.03 45.2336 1109.03 45.7819Z" fill="#00798C"/>
<path d="M460.945 30.0781H457.922V38H455.328V30.0781H452.273V27.7422H460.945V30.0781ZM461.774 27.0234H464.258V31.375C464.472 31.0885 464.761 30.8672 465.125 30.7109C465.495 30.5547 465.899 30.4766 466.336 30.4766C467.222 30.4766 467.894 30.75 468.352 31.2969C468.81 31.8385 469.039 32.5677 469.039 33.4844V38H466.563V34.0781C466.563 33.5104 466.44 33.1432 466.196 32.9766C465.951 32.8047 465.709 32.7188 465.469 32.7188C464.646 32.7188 464.237 33.1562 464.243 34.0312V38H461.774V27.0234ZM471.469 29.875C471.011 29.875 470.623 29.724 470.305 29.4219C469.993 29.1146 469.837 28.7474 469.837 28.3203C469.837 27.8828 469.993 27.5156 470.305 27.2188C470.623 26.9167 471.011 26.7656 471.469 26.7656C471.928 26.7656 472.311 26.9167 472.618 27.2188C472.93 27.5156 473.087 27.8828 473.087 28.3203C473.087 28.7474 472.93 29.1146 472.618 29.4219C472.311 29.724 471.928 29.875 471.469 29.875ZM470.219 30.7344H472.704V38H470.219V30.7344ZM476.876 38.2109C475.928 38.2109 475.155 37.9896 474.556 37.5469C473.962 37.1042 473.631 36.4974 473.563 35.7266H476.017C476.027 35.9401 476.108 36.1068 476.259 36.2266C476.415 36.3411 476.616 36.3984 476.86 36.3984C477.063 36.3984 477.225 36.362 477.345 36.2891C477.47 36.2161 477.532 36.1042 477.532 35.9531C477.532 35.8125 477.488 35.7135 477.399 35.6562C477.311 35.599 477.175 35.5495 476.993 35.5078L475.868 35.2344C474.441 34.8906 473.728 34.1432 473.728 32.9922C473.728 32.237 474.014 31.6302 474.587 31.1719C475.165 30.7083 475.918 30.4766 476.845 30.4766C477.751 30.4766 478.485 30.7005 479.048 31.1484C479.616 31.5964 479.912 32.1849 479.938 32.9141H477.501C477.501 32.7318 477.433 32.5885 477.298 32.4844C477.168 32.375 476.996 32.3203 476.782 32.3203C476.61 32.3203 476.472 32.3594 476.368 32.4375C476.269 32.5104 476.22 32.6146 476.22 32.75C476.22 32.8802 476.261 32.9714 476.345 33.0234C476.433 33.0755 476.595 33.1302 476.829 33.1875L478.157 33.5078C478.819 33.6693 479.306 33.9427 479.618 34.3281C479.936 34.7083 480.095 35.1641 480.095 35.6953C480.095 36.4609 479.8 37.0729 479.212 37.5312C478.629 37.9844 477.85 38.2109 476.876 38.2109ZM492.4 30.7344V38H490.017V37.2812C489.772 37.5677 489.439 37.7943 489.017 37.9609C488.595 38.1276 488.14 38.2109 487.65 38.2109C486.978 38.2109 486.382 38.0547 485.861 37.7422C485.345 37.4245 484.942 36.9818 484.65 36.4141C484.364 35.8411 484.22 35.1797 484.22 34.4297C484.22 33.6484 484.371 32.9609 484.673 32.3672C484.981 31.7682 485.41 31.3047 485.962 30.9766C486.52 30.6432 487.16 30.4766 487.884 30.4766C488.89 30.4766 489.653 30.7708 490.173 31.3594L490.337 30.7344H492.4ZM488.322 35.9688C488.791 35.9688 489.173 35.8203 489.47 35.5234C489.772 35.2214 489.923 34.8255 489.923 34.3359C489.923 33.8464 489.772 33.4531 489.47 33.1562C489.173 32.8542 488.791 32.7031 488.322 32.7031C487.853 32.7031 487.473 32.8568 487.181 33.1641C486.895 33.4661 486.752 33.8568 486.752 34.3359C486.752 34.8151 486.895 35.2083 487.181 35.5156C487.473 35.8177 487.853 35.9688 488.322 35.9688ZM498.111 30.4766C498.976 30.4766 499.65 30.7526 500.135 31.3047C500.619 31.8516 500.861 32.5781 500.861 33.4844V38H498.385V34.0781C498.385 33.1719 498.015 32.7188 497.275 32.7188C496.52 32.7188 496.143 33.1562 496.143 34.0312V38H493.674V30.7344H495.744L495.869 31.4688C496.093 31.1615 496.406 30.9193 496.807 30.7422C497.208 30.5651 497.643 30.4766 498.111 30.4766ZM506.494 30.4766C507.359 30.4766 508.033 30.7526 508.518 31.3047C509.002 31.8516 509.244 32.5781 509.244 33.4844V38H506.768V34.0781C506.768 33.1719 506.398 32.7188 505.658 32.7188C504.903 32.7188 504.526 33.1562 504.526 34.0312V38H502.057V30.7344H504.127L504.252 31.4688C504.476 31.1615 504.789 30.9193 505.19 30.7422C505.591 30.5651 506.026 30.4766 506.494 30.4766ZM510.12 34.3516C510.12 33.5964 510.292 32.9245 510.635 32.3359C510.979 31.7474 511.456 31.2917 512.065 30.9688C512.68 30.6406 513.388 30.4766 514.19 30.4766C514.992 30.4766 515.698 30.6406 516.307 30.9688C516.922 31.2917 517.398 31.7474 517.737 32.3359C518.081 32.9245 518.252 33.5964 518.252 34.3516C518.252 35.1068 518.081 35.776 517.737 36.3594C517.398 36.9427 516.922 37.3984 516.307 37.7266C515.693 38.0495 514.987 38.2109 514.19 38.2109C513.388 38.2109 512.68 38.0495 512.065 37.7266C511.456 37.3984 510.979 36.9427 510.635 36.3594C510.292 35.776 510.12 35.1068 510.12 34.3516ZM512.651 34.3359C512.651 34.8255 512.792 35.2292 513.073 35.5469C513.359 35.8594 513.732 36.0156 514.19 36.0156C514.648 36.0156 515.018 35.8594 515.299 35.5469C515.581 35.2292 515.721 34.8255 515.721 34.3359C515.721 33.8464 515.581 33.4505 515.299 33.1484C515.018 32.8411 514.648 32.6875 514.19 32.6875C513.732 32.6875 513.359 32.8411 513.073 33.1484C512.792 33.4505 512.651 33.8464 512.651 34.3359ZM526.245 30.7344V38H524.175L524.05 37.2344C523.529 37.8854 522.792 38.2109 521.839 38.2109C520.964 38.2109 520.292 37.9505 519.823 37.4297C519.354 36.9036 519.12 36.1979 519.12 35.3125V30.7344H521.604V34.9453C521.604 35.6901 521.966 36.0625 522.69 36.0625C523.034 36.0625 523.297 35.9609 523.479 35.7578C523.667 35.5547 523.761 35.2786 523.761 34.9297V30.7344H526.245ZM531.878 30.4766C532.743 30.4766 533.417 30.7526 533.902 31.3047C534.386 31.8516 534.628 32.5781 534.628 33.4844V38H532.152V34.0781C532.152 33.1719 531.782 32.7188 531.042 32.7188C530.287 32.7188 529.909 33.1562 529.909 34.0312V38H527.441V30.7344H529.511L529.636 31.4688C529.86 31.1615 530.172 30.9193 530.573 30.7422C530.974 30.5651 531.409 30.4766 531.878 30.4766ZM535.503 34.3516C535.503 33.5859 535.668 32.9089 535.996 32.3203C536.329 31.7318 536.798 31.2786 537.402 30.9609C538.006 30.638 538.696 30.4766 539.472 30.4766C540.186 30.4766 540.826 30.612 541.394 30.8828C541.962 31.1484 542.41 31.526 542.738 32.0156C543.071 32.5052 543.253 33.0651 543.285 33.6953H540.753C540.681 33.3516 540.524 33.0964 540.285 32.9297C540.045 32.7578 539.764 32.6719 539.441 32.6719C539.014 32.6719 538.673 32.8281 538.418 33.1406C538.162 33.4479 538.035 33.8568 538.035 34.3672C538.035 34.8672 538.162 35.2708 538.418 35.5781C538.673 35.8802 539.014 36.0312 539.441 36.0312C539.785 36.0312 540.076 35.9375 540.316 35.75C540.556 35.5625 540.701 35.3203 540.753 35.0234H543.285C543.243 35.6536 543.053 36.2083 542.714 36.6875C542.381 37.1667 541.933 37.5417 541.371 37.8125C540.813 38.0781 540.181 38.2109 539.472 38.2109C538.691 38.2109 537.998 38.0521 537.394 37.7344C536.795 37.4115 536.329 36.9609 535.996 36.3828C535.668 35.7995 535.503 35.1224 535.503 34.3516ZM551.488 35.6172C551.337 36.3932 550.923 37.0208 550.246 37.5C549.569 37.974 548.756 38.2109 547.808 38.2109C547.043 38.2109 546.366 38.0495 545.777 37.7266C545.189 37.3984 544.73 36.9401 544.402 36.3516C544.079 35.763 543.918 35.0911 543.918 34.3359C543.918 33.5547 544.079 32.875 544.402 32.2969C544.73 31.7135 545.186 31.2656 545.769 30.9531C546.353 30.6354 547.017 30.4766 547.762 30.4766C548.496 30.4766 549.142 30.6276 549.699 30.9297C550.262 31.2266 550.696 31.6432 551.004 32.1797C551.316 32.7109 551.473 33.3177 551.473 34C551.473 34.4062 551.441 34.7474 551.379 35.0234H546.371C546.392 35.3776 546.532 35.6641 546.793 35.8828C547.053 36.1016 547.392 36.2109 547.808 36.2109C548.116 36.2109 548.381 36.1589 548.605 36.0547C548.834 35.9453 548.996 35.7995 549.09 35.6172H551.488ZM548.926 33.4219C548.915 33.1354 548.793 32.9089 548.558 32.7422C548.324 32.5755 548.027 32.4922 547.668 32.4922C547.314 32.4922 547.019 32.5755 546.785 32.7422C546.551 32.9089 546.423 33.1354 546.402 33.4219H548.926ZM561.434 30.4766C562.22 30.4766 562.863 30.7344 563.363 31.25C563.869 31.7604 564.121 32.4219 564.121 33.2344V38H561.637V33.8594C561.637 33.474 561.541 33.1719 561.348 32.9531C561.16 32.7344 560.916 32.625 560.613 32.625C560.249 32.625 559.962 32.7448 559.754 32.9844C559.551 33.224 559.449 33.5573 559.449 33.9844V38H557.012V33.8594C557.012 33.474 556.916 33.1745 556.723 32.9609C556.535 32.7474 556.275 32.6406 555.942 32.6406C555.598 32.6406 555.324 32.763 555.121 33.0078C554.923 33.2526 554.824 33.5781 554.824 33.9844V38H552.34V30.7344H554.645L554.746 31.375C554.97 31.099 555.262 30.8802 555.621 30.7188C555.986 30.5573 556.366 30.4766 556.762 30.4766C557.272 30.4766 557.733 30.5885 558.145 30.8125C558.556 31.0365 558.869 31.3359 559.082 31.7109C559.306 31.3151 559.616 31.0104 560.012 30.7969C560.413 30.5833 560.887 30.4766 561.434 30.4766ZM572.567 35.6172C572.416 36.3932 572.002 37.0208 571.325 37.5C570.648 37.974 569.835 38.2109 568.887 38.2109C568.122 38.2109 567.444 38.0495 566.856 37.7266C566.267 37.3984 565.809 36.9401 565.481 36.3516C565.158 35.763 564.997 35.0911 564.997 34.3359C564.997 33.5547 565.158 32.875 565.481 32.2969C565.809 31.7135 566.265 31.2656 566.848 30.9531C567.431 30.6354 568.096 30.4766 568.84 30.4766C569.575 30.4766 570.221 30.6276 570.778 30.9297C571.34 31.2266 571.775 31.6432 572.082 32.1797C572.395 32.7109 572.551 33.3177 572.551 34C572.551 34.4062 572.52 34.7474 572.457 35.0234H567.45C567.471 35.3776 567.611 35.6641 567.872 35.8828C568.132 36.1016 568.471 36.2109 568.887 36.2109C569.194 36.2109 569.46 36.1589 569.684 36.0547C569.913 35.9453 570.075 35.7995 570.168 35.6172H572.567ZM570.004 33.4219C569.994 33.1354 569.872 32.9089 569.637 32.7422C569.403 32.5755 569.106 32.4922 568.747 32.4922C568.392 32.4922 568.098 32.5755 567.864 32.7422C567.629 32.9089 567.502 33.1354 567.481 33.4219H570.004ZM577.856 30.4766C578.721 30.4766 579.395 30.7526 579.88 31.3047C580.364 31.8516 580.606 32.5781 580.606 33.4844V38H578.13V34.0781C578.13 33.1719 577.76 32.7188 577.02 32.7188C576.265 32.7188 575.887 33.1562 575.887 34.0312V38H573.419V30.7344H575.489L575.614 31.4688C575.838 31.1615 576.151 30.9193 576.552 30.7422C576.953 30.5651 577.387 30.4766 577.856 30.4766ZM586.318 32.7812H584.974V38H582.489V32.7812H581.161V30.7344H582.489V28.8672H584.974V30.7344H586.318V32.7812ZM595.021 30.4766C595.714 30.4766 596.334 30.6406 596.881 30.9688C597.433 31.2917 597.86 31.7474 598.162 32.3359C598.469 32.9245 598.623 33.5964 598.623 34.3516C598.623 35.1068 598.469 35.7786 598.162 36.3672C597.86 36.9557 597.435 37.4115 596.888 37.7344C596.347 38.0521 595.724 38.2109 595.021 38.2109C594.521 38.2109 594.06 38.125 593.638 37.9531C593.217 37.7812 592.883 37.5417 592.638 37.2344L592.513 38H590.443V27.0234H592.928V31.1484C593.428 30.7005 594.125 30.4766 595.021 30.4766ZM594.529 35.9688C594.998 35.9688 595.375 35.8177 595.662 35.5156C595.948 35.2083 596.092 34.8151 596.092 34.3359C596.092 33.8568 595.948 33.4661 595.662 33.1641C595.375 32.8568 594.998 32.7031 594.529 32.7031C594.06 32.7031 593.675 32.8542 593.373 33.1562C593.076 33.4531 592.928 33.8464 592.928 34.3359C592.928 34.8255 593.076 35.2214 593.373 35.5234C593.675 35.8203 594.06 35.9688 594.529 35.9688ZM607.436 30.7344V38H605.053V37.2812C604.808 37.5677 604.475 37.7943 604.053 37.9609C603.631 38.1276 603.175 38.2109 602.686 38.2109C602.014 38.2109 601.417 38.0547 600.897 37.7422C600.381 37.4245 599.977 36.9818 599.686 36.4141C599.399 35.8411 599.256 35.1797 599.256 34.4297C599.256 33.6484 599.407 32.9609 599.709 32.3672C600.016 31.7682 600.446 31.3047 600.998 30.9766C601.555 30.6432 602.196 30.4766 602.92 30.4766C603.925 30.4766 604.688 30.7708 605.209 31.3594L605.373 30.7344H607.436ZM603.357 35.9688C603.826 35.9688 604.209 35.8203 604.506 35.5234C604.808 35.2214 604.959 34.8255 604.959 34.3359C604.959 33.8464 604.808 33.4531 604.506 33.1562C604.209 32.8542 603.826 32.7031 603.357 32.7031C602.889 32.7031 602.509 32.8568 602.217 33.1641C601.93 33.4661 601.787 33.8568 601.787 34.3359C601.787 34.8151 601.93 35.2083 602.217 35.5156C602.509 35.8177 602.889 35.9688 603.357 35.9688ZM612.827 30.6719C613.071 30.6719 613.29 30.6927 613.483 30.7344V32.8984L613.178 32.8828C612.538 32.8828 612.045 33.0469 611.702 33.375C611.363 33.6979 611.194 34.1562 611.194 34.75V38H608.709V30.7344H610.983L611.147 31.6641C611.267 31.3359 611.475 31.0885 611.772 30.9219C612.069 30.7552 612.42 30.6719 612.827 30.6719ZM617.374 34.3516C617.374 33.5859 617.538 32.9089 617.866 32.3203C618.2 31.7318 618.668 31.2786 619.273 30.9609C619.877 30.638 620.567 30.4766 621.343 30.4766C622.056 30.4766 622.697 30.612 623.265 30.8828C623.832 31.1484 624.28 31.526 624.608 32.0156C624.942 32.5052 625.124 33.0651 625.155 33.6953H622.624C622.551 33.3516 622.395 33.0964 622.155 32.9297C621.916 32.7578 621.634 32.6719 621.312 32.6719C620.884 32.6719 620.543 32.8281 620.288 33.1406C620.033 33.4479 619.905 33.8568 619.905 34.3672C619.905 34.8672 620.033 35.2708 620.288 35.5781C620.543 35.8802 620.884 36.0312 621.312 36.0312C621.655 36.0312 621.947 35.9375 622.187 35.75C622.426 35.5625 622.572 35.3203 622.624 35.0234H625.155C625.114 35.6536 624.924 36.2083 624.585 36.6875C624.252 37.1667 623.804 37.5417 623.241 37.8125C622.684 38.0781 622.051 38.2109 621.343 38.2109C620.562 38.2109 619.869 38.0521 619.265 37.7344C618.666 37.4115 618.2 36.9609 617.866 36.3828C617.538 35.7995 617.374 35.1224 617.374 34.3516ZM633.968 30.7344V38H631.585V37.2812C631.341 37.5677 631.007 37.7943 630.585 37.9609C630.163 38.1276 629.708 38.2109 629.218 38.2109C628.546 38.2109 627.95 38.0547 627.429 37.7422C626.913 37.4245 626.51 36.9818 626.218 36.4141C625.932 35.8411 625.788 35.1797 625.788 34.4297C625.788 33.6484 625.939 32.9609 626.242 32.3672C626.549 31.7682 626.979 31.3047 627.531 30.9766C628.088 30.6432 628.729 30.4766 629.452 30.4766C630.458 30.4766 631.221 30.7708 631.742 31.3594L631.906 30.7344H633.968ZM629.89 35.9688C630.359 35.9688 630.742 35.8203 631.038 35.5234C631.341 35.2214 631.492 34.8255 631.492 34.3359C631.492 33.8464 631.341 33.4531 631.038 33.1562C630.742 32.8542 630.359 32.7031 629.89 32.7031C629.421 32.7031 629.041 32.8568 628.749 33.1641C628.463 33.4661 628.32 33.8568 628.32 34.3359C628.32 34.8151 628.463 35.2083 628.749 35.5156C629.041 35.8177 629.421 35.9688 629.89 35.9688ZM639.679 30.4766C640.544 30.4766 641.218 30.7526 641.703 31.3047C642.187 31.8516 642.429 32.5781 642.429 33.4844V38H639.953V34.0781C639.953 33.1719 639.583 32.7188 638.843 32.7188C638.088 32.7188 637.711 33.1562 637.711 34.0312V38H635.242V30.7344H637.312L637.437 31.4688C637.661 31.1615 637.974 30.9193 638.375 30.7422C638.776 30.5651 639.211 30.4766 639.679 30.4766ZM651.696 30.4766C652.388 30.4766 653.008 30.6406 653.555 30.9688C654.107 31.2917 654.534 31.7474 654.836 32.3359C655.144 32.9245 655.297 33.5964 655.297 34.3516C655.297 35.1068 655.144 35.7786 654.836 36.3672C654.534 36.9557 654.11 37.4115 653.563 37.7344C653.021 38.0521 652.399 38.2109 651.696 38.2109C651.196 38.2109 650.735 38.125 650.313 37.9531C649.891 37.7812 649.558 37.5417 649.313 37.2344L649.188 38H647.117V27.0234H649.602V31.1484C650.102 30.7005 650.8 30.4766 651.696 30.4766ZM651.203 35.9688C651.672 35.9688 652.05 35.8177 652.336 35.5156C652.623 35.2083 652.766 34.8151 652.766 34.3359C652.766 33.8568 652.623 33.4661 652.336 33.1641C652.05 32.8568 651.672 32.7031 651.203 32.7031C650.735 32.7031 650.349 32.8542 650.047 33.1562C649.75 33.4531 649.602 33.8464 649.602 34.3359C649.602 34.8255 649.75 35.2214 650.047 35.5234C650.349 35.8203 650.735 35.9688 651.203 35.9688ZM663.501 35.6172C663.35 36.3932 662.936 37.0208 662.258 37.5C661.581 37.974 660.769 38.2109 659.821 38.2109C659.055 38.2109 658.378 38.0495 657.79 37.7266C657.201 37.3984 656.743 36.9401 656.415 36.3516C656.092 35.763 655.93 35.0911 655.93 34.3359C655.93 33.5547 656.092 32.875 656.415 32.2969C656.743 31.7135 657.199 31.2656 657.782 30.9531C658.365 30.6354 659.029 30.4766 659.774 30.4766C660.508 30.4766 661.154 30.6276 661.712 30.9297C662.274 31.2266 662.709 31.6432 663.016 32.1797C663.329 32.7109 663.485 33.3177 663.485 34C663.485 34.4062 663.454 34.7474 663.391 35.0234H658.383C658.404 35.3776 658.545 35.6641 658.805 35.8828C659.066 36.1016 659.404 36.2109 659.821 36.2109C660.128 36.2109 660.394 36.1589 660.618 36.0547C660.847 35.9453 661.008 35.7995 661.102 35.6172H663.501ZM660.938 33.4219C660.928 33.1354 660.805 32.9089 660.571 32.7422C660.337 32.5755 660.04 32.4922 659.68 32.4922C659.326 32.4922 659.032 32.5755 658.798 32.7422C658.563 32.9089 658.436 33.1354 658.415 33.4219H660.938ZM674.892 30.7344V38H672.822L672.697 37.2344C672.176 37.8854 671.439 38.2109 670.486 38.2109C669.611 38.2109 668.939 37.9505 668.47 37.4297C668.001 36.9036 667.767 36.1979 667.767 35.3125V30.7344H670.251V34.9453C670.251 35.6901 670.613 36.0625 671.337 36.0625C671.681 36.0625 671.944 35.9609 672.126 35.7578C672.314 35.5547 672.408 35.2786 672.408 34.9297V30.7344H674.892ZM679.08 38.2109C678.132 38.2109 677.358 37.9896 676.759 37.5469C676.166 37.1042 675.835 36.4974 675.767 35.7266H678.22C678.231 35.9401 678.311 36.1068 678.462 36.2266C678.619 36.3411 678.819 36.3984 679.064 36.3984C679.267 36.3984 679.429 36.362 679.548 36.2891C679.673 36.2161 679.736 36.1042 679.736 35.9531C679.736 35.8125 679.692 35.7135 679.603 35.6562C679.515 35.599 679.379 35.5495 679.197 35.5078L678.072 35.2344C676.645 34.8906 675.931 34.1432 675.931 32.9922C675.931 32.237 676.218 31.6302 676.791 31.1719C677.369 30.7083 678.121 30.4766 679.048 30.4766C679.955 30.4766 680.689 30.7005 681.252 31.1484C681.819 31.5964 682.116 32.1849 682.142 32.9141H679.705C679.705 32.7318 679.637 32.5885 679.502 32.4844C679.371 32.375 679.199 32.3203 678.986 32.3203C678.814 32.3203 678.676 32.3594 678.572 32.4375C678.473 32.5104 678.423 32.6146 678.423 32.75C678.423 32.8802 678.465 32.9714 678.548 33.0234C678.637 33.0755 678.798 33.1302 679.033 33.1875L680.361 33.5078C681.022 33.6693 681.509 33.9427 681.822 34.3281C682.14 34.7083 682.298 35.1641 682.298 35.6953C682.298 36.4609 682.004 37.0729 681.416 37.5312C680.832 37.9844 680.054 38.2109 679.08 38.2109ZM690.486 35.6172C690.335 36.3932 689.921 37.0208 689.244 37.5C688.567 37.974 687.754 38.2109 686.807 38.2109C686.041 38.2109 685.364 38.0495 684.775 37.7266C684.187 37.3984 683.728 36.9401 683.4 36.3516C683.077 35.763 682.916 35.0911 682.916 34.3359C682.916 33.5547 683.077 32.875 683.4 32.2969C683.728 31.7135 684.184 31.2656 684.768 30.9531C685.351 30.6354 686.015 30.4766 686.76 30.4766C687.494 30.4766 688.14 30.6276 688.697 30.9297C689.26 31.2266 689.695 31.6432 690.002 32.1797C690.314 32.7109 690.471 33.3177 690.471 34C690.471 34.4062 690.439 34.7474 690.377 35.0234H685.369C685.39 35.3776 685.531 35.6641 685.791 35.8828C686.051 36.1016 686.39 36.2109 686.807 36.2109C687.114 36.2109 687.379 36.1589 687.603 36.0547C687.833 35.9453 687.994 35.7995 688.088 35.6172H690.486ZM687.924 33.4219C687.913 33.1354 687.791 32.9089 687.557 32.7422C687.322 32.5755 687.025 32.4922 686.666 32.4922C686.312 32.4922 686.018 32.5755 685.783 32.7422C685.549 32.9089 685.421 33.1354 685.4 33.4219H687.924ZM699.197 27.0234V38H697.135L697.002 37.2344C696.757 37.5417 696.424 37.7812 696.002 37.9531C695.58 38.125 695.119 38.2109 694.619 38.2109C693.916 38.2109 693.291 38.0521 692.744 37.7344C692.203 37.4115 691.778 36.9557 691.471 36.3672C691.169 35.7786 691.018 35.1068 691.018 34.3516C691.018 33.5964 691.169 32.9245 691.471 32.3359C691.778 31.7474 692.205 31.2917 692.752 30.9688C693.304 30.6406 693.927 30.4766 694.619 30.4766C695.515 30.4766 696.216 30.7005 696.721 31.1484V27.0234H699.197ZM695.119 35.9688C695.588 35.9688 695.971 35.8203 696.268 35.5234C696.57 35.2214 696.721 34.8255 696.721 34.3359C696.721 33.8464 696.57 33.4531 696.268 33.1562C695.971 32.8542 695.588 32.7031 695.119 32.7031C694.651 32.7031 694.27 32.8568 693.979 33.1641C693.692 33.4661 693.549 33.8568 693.549 34.3359C693.549 34.8151 693.692 35.2083 693.979 35.5156C694.27 35.8177 694.651 35.9688 695.119 35.9688ZM708.401 32.7812H707.057V38H704.573V32.7812H703.245V30.7344H704.573V28.8672H707.057V30.7344H708.401V32.7812ZM708.636 34.3516C708.636 33.5964 708.808 32.9245 709.152 32.3359C709.495 31.7474 709.972 31.2917 710.581 30.9688C711.196 30.6406 711.904 30.4766 712.706 30.4766C713.508 30.4766 714.214 30.6406 714.823 30.9688C715.438 31.2917 715.915 31.7474 716.253 32.3359C716.597 32.9245 716.769 33.5964 716.769 34.3516C716.769 35.1068 716.597 35.776 716.253 36.3594C715.915 36.9427 715.438 37.3984 714.823 37.7266C714.209 38.0495 713.503 38.2109 712.706 38.2109C711.904 38.2109 711.196 38.0495 710.581 37.7266C709.972 37.3984 709.495 36.9427 709.152 36.3594C708.808 35.776 708.636 35.1068 708.636 34.3516ZM711.167 34.3359C711.167 34.8255 711.308 35.2292 711.589 35.5469C711.876 35.8594 712.248 36.0156 712.706 36.0156C713.165 36.0156 713.534 35.8594 713.816 35.5469C714.097 35.2292 714.237 34.8255 714.237 34.3359C714.237 33.8464 714.097 33.4505 713.816 33.1484C713.534 32.8411 713.165 32.6875 712.706 32.6875C712.248 32.6875 711.876 32.8411 711.589 33.1484C711.308 33.4505 711.167 33.8464 711.167 34.3359ZM722.457 29.875C721.999 29.875 721.611 29.724 721.293 29.4219C720.98 29.1146 720.824 28.7474 720.824 28.3203C720.824 27.8828 720.98 27.5156 721.293 27.2188C721.611 26.9167 721.999 26.7656 722.457 26.7656C722.915 26.7656 723.298 26.9167 723.605 27.2188C723.918 27.5156 724.074 27.8828 724.074 28.3203C724.074 28.7474 723.918 29.1146 723.605 29.4219C723.298 29.724 722.915 29.875 722.457 29.875ZM721.207 30.7344H723.691V38H721.207V30.7344ZM729.387 30.4766C730.251 30.4766 730.926 30.7526 731.41 31.3047C731.895 31.8516 732.137 32.5781 732.137 33.4844V38H729.66V34.0781C729.66 33.1719 729.291 32.7188 728.551 32.7188C727.796 32.7188 727.418 33.1562 727.418 34.0312V38H724.949V30.7344H727.02L727.145 31.4688C727.369 31.1615 727.681 30.9193 728.082 30.7422C728.483 30.5651 728.918 30.4766 729.387 30.4766ZM737.707 29.0078C737.181 29.0078 736.846 29.1276 736.7 29.3672C736.559 29.6068 736.489 29.8984 736.489 30.2422V30.7344H738.231V32.7812H736.489V38H734.02V32.7812H732.692V30.7344H734.02V29.875C734.02 28.849 734.296 28.099 734.848 27.625C735.405 27.151 736.181 26.9141 737.176 26.9141C737.541 26.9141 737.892 26.9505 738.231 27.0234V29.0547C738.137 29.0234 737.963 29.0078 737.707 29.0078ZM738.52 34.3516C738.52 33.5964 738.692 32.9245 739.036 32.3359C739.38 31.7474 739.856 31.2917 740.466 30.9688C741.08 30.6406 741.789 30.4766 742.591 30.4766C743.393 30.4766 744.098 30.6406 744.708 30.9688C745.322 31.2917 745.799 31.7474 746.138 32.3359C746.481 32.9245 746.653 33.5964 746.653 34.3516C746.653 35.1068 746.481 35.776 746.138 36.3594C745.799 36.9427 745.322 37.3984 744.708 37.7266C744.093 38.0495 743.388 38.2109 742.591 38.2109C741.789 38.2109 741.08 38.0495 740.466 37.7266C739.856 37.3984 739.38 36.9427 739.036 36.3594C738.692 35.776 738.52 35.1068 738.52 34.3516ZM741.052 34.3359C741.052 34.8255 741.192 35.2292 741.473 35.5469C741.76 35.8594 742.132 36.0156 742.591 36.0156C743.049 36.0156 743.419 35.8594 743.7 35.5469C743.981 35.2292 744.122 34.8255 744.122 34.3359C744.122 33.8464 743.981 33.4505 743.7 33.1484C743.419 32.8411 743.049 32.6875 742.591 32.6875C742.132 32.6875 741.76 32.8411 741.473 33.1484C741.192 33.4505 741.052 33.8464 741.052 34.3359ZM751.732 30.6719C751.976 30.6719 752.195 30.6927 752.388 30.7344V32.8984L752.083 32.8828C751.443 32.8828 750.95 33.0469 750.607 33.375C750.268 33.6979 750.099 34.1562 750.099 34.75V38H747.614V30.7344H749.888L750.052 31.6641C750.172 31.3359 750.38 31.0885 750.677 30.9219C750.974 30.7552 751.325 30.6719 751.732 30.6719ZM762.279 30.4766C763.065 30.4766 763.708 30.7344 764.208 31.25C764.714 31.7604 764.966 32.4219 764.966 33.2344V38H762.482V33.8594C762.482 33.474 762.386 33.1719 762.193 32.9531C762.005 32.7344 761.761 32.625 761.458 32.625C761.094 32.625 760.807 32.7448 760.599 32.9844C760.396 33.224 760.294 33.5573 760.294 33.9844V38H757.857V33.8594C757.857 33.474 757.761 33.1745 757.568 32.9609C757.38 32.7474 757.12 32.6406 756.787 32.6406C756.443 32.6406 756.169 32.763 755.966 33.0078C755.768 33.2526 755.669 33.5781 755.669 33.9844V38H753.185V30.7344H755.49L755.591 31.375C755.815 31.099 756.107 30.8802 756.466 30.7188C756.831 30.5573 757.211 30.4766 757.607 30.4766C758.117 30.4766 758.578 30.5885 758.99 30.8125C759.401 31.0365 759.714 31.3359 759.927 31.7109C760.151 31.3151 760.461 31.0104 760.857 30.7969C761.258 30.5833 761.732 30.4766 762.279 30.4766ZM771.686 30.7344L772.397 32.8672C772.558 33.3568 772.706 33.8542 772.842 34.3594C772.983 34.8646 773.074 35.1927 773.115 35.3438C773.167 35.1823 773.279 34.8385 773.451 34.3125C773.623 33.7865 773.787 33.3047 773.943 32.8672L774.748 30.7344H777.303L774.264 38H771.834L769.014 30.7344H771.686ZM779.178 29.875C778.72 29.875 778.332 29.724 778.014 29.4219C777.702 29.1146 777.545 28.7474 777.545 28.3203C777.545 27.8828 777.702 27.5156 778.014 27.2188C778.332 26.9167 778.72 26.7656 779.178 26.7656C779.636 26.7656 780.019 26.9167 780.327 27.2188C780.639 27.5156 780.795 27.8828 780.795 28.3203C780.795 28.7474 780.639 29.1146 780.327 29.4219C780.019 29.724 779.636 29.875 779.178 29.875ZM777.928 30.7344H780.413V38H777.928V30.7344ZM784.585 38.2109C783.637 38.2109 782.863 37.9896 782.264 37.5469C781.671 37.1042 781.34 36.4974 781.272 35.7266H783.725C783.736 35.9401 783.816 36.1068 783.967 36.2266C784.124 36.3411 784.324 36.3984 784.569 36.3984C784.772 36.3984 784.934 36.362 785.053 36.2891C785.178 36.2161 785.241 36.1042 785.241 35.9531C785.241 35.8125 785.197 35.7135 785.108 35.6562C785.02 35.599 784.884 35.5495 784.702 35.5078L783.577 35.2344C782.15 34.8906 781.436 34.1432 781.436 32.9922C781.436 32.237 781.723 31.6302 782.296 31.1719C782.874 30.7083 783.626 30.4766 784.553 30.4766C785.46 30.4766 786.194 30.7005 786.757 31.1484C787.324 31.5964 787.621 32.1849 787.647 32.9141H785.21C785.21 32.7318 785.142 32.5885 785.007 32.4844C784.876 32.375 784.704 32.3203 784.491 32.3203C784.319 32.3203 784.181 32.3594 784.077 32.4375C783.978 32.5104 783.928 32.6146 783.928 32.75C783.928 32.8802 783.97 32.9714 784.053 33.0234C784.142 33.0755 784.303 33.1302 784.538 33.1875L785.866 33.5078C786.527 33.6693 787.014 33.9427 787.327 34.3281C787.645 34.7083 787.803 35.1641 787.803 35.6953C787.803 36.4609 787.509 37.0729 786.921 37.5312C786.337 37.9844 785.559 38.2109 784.585 38.2109ZM793.272 32.7812H791.929V38H789.444V32.7812H788.116V30.7344H789.444V28.8672H791.929V30.7344H793.272V32.7812ZM793.507 34.3516C793.507 33.5964 793.679 32.9245 794.023 32.3359C794.367 31.7474 794.843 31.2917 795.453 30.9688C796.067 30.6406 796.775 30.4766 797.578 30.4766C798.38 30.4766 799.085 30.6406 799.695 30.9688C800.309 31.2917 800.786 31.7474 801.124 32.3359C801.468 32.9245 801.64 33.5964 801.64 34.3516C801.64 35.1068 801.468 35.776 801.124 36.3594C800.786 36.9427 800.309 37.3984 799.695 37.7266C799.08 38.0495 798.374 38.2109 797.578 38.2109C796.775 38.2109 796.067 38.0495 795.453 37.7266C794.843 37.3984 794.367 36.9427 794.023 36.3594C793.679 35.776 793.507 35.1068 793.507 34.3516ZM796.038 34.3359C796.038 34.8255 796.179 35.2292 796.46 35.5469C796.747 35.8594 797.119 36.0156 797.578 36.0156C798.036 36.0156 798.406 35.8594 798.687 35.5469C798.968 35.2292 799.109 34.8255 799.109 34.3359C799.109 33.8464 798.968 33.4505 798.687 33.1484C798.406 32.8411 798.036 32.6875 797.578 32.6875C797.119 32.6875 796.747 32.8411 796.46 33.1484C796.179 33.4505 796.038 33.8464 796.038 34.3359ZM806.718 30.6719C806.963 30.6719 807.182 30.6927 807.375 30.7344V32.8984L807.07 32.8828C806.429 32.8828 805.937 33.0469 805.593 33.375C805.255 33.6979 805.086 34.1562 805.086 34.75V38H802.601V30.7344H804.875L805.039 31.6641C805.159 31.3359 805.367 31.0885 805.664 30.9219C805.961 30.7552 806.312 30.6719 806.718 30.6719ZM811.008 38.2109C810.06 38.2109 809.286 37.9896 808.688 37.5469C808.094 37.1042 807.763 36.4974 807.695 35.7266H810.148C810.159 35.9401 810.24 36.1068 810.391 36.2266C810.547 36.3411 810.747 36.3984 810.992 36.3984C811.195 36.3984 811.357 36.362 811.477 36.2891C811.602 36.2161 811.664 36.1042 811.664 35.9531C811.664 35.8125 811.62 35.7135 811.531 35.6562C811.443 35.599 811.307 35.5495 811.125 35.5078L810 35.2344C808.573 34.8906 807.859 34.1432 807.859 32.9922C807.859 32.237 808.146 31.6302 808.719 31.1719C809.297 30.7083 810.049 30.4766 810.977 30.4766C811.883 30.4766 812.617 30.7005 813.18 31.1484C813.747 31.5964 814.044 32.1849 814.07 32.9141H811.633C811.633 32.7318 811.565 32.5885 811.43 32.4844C811.299 32.375 811.128 32.3203 810.914 32.3203C810.742 32.3203 810.604 32.3594 810.5 32.4375C810.401 32.5104 810.352 32.6146 810.352 32.75C810.352 32.8802 810.393 32.9714 810.477 33.0234C810.565 33.0755 810.727 33.1302 810.961 33.1875L812.289 33.5078C812.951 33.6693 813.438 33.9427 813.75 34.3281C814.068 34.7083 814.227 35.1641 814.227 35.6953C814.227 36.4609 813.932 37.0729 813.344 37.5312C812.76 37.9844 811.982 38.2109 811.008 38.2109ZM818.352 34.3516C818.352 33.5964 818.524 32.9245 818.868 32.3359C819.212 31.7474 819.688 31.2917 820.297 30.9688C820.912 30.6406 821.62 30.4766 822.422 30.4766C823.225 30.4766 823.93 30.6406 824.54 30.9688C825.154 31.2917 825.631 31.7474 825.969 32.3359C826.313 32.9245 826.485 33.5964 826.485 34.3516C826.485 35.1068 826.313 35.776 825.969 36.3594C825.631 36.9427 825.154 37.3984 824.54 37.7266C823.925 38.0495 823.219 38.2109 822.422 38.2109C821.62 38.2109 820.912 38.0495 820.297 37.7266C819.688 37.3984 819.212 36.9427 818.868 36.3594C818.524 35.776 818.352 35.1068 818.352 34.3516ZM820.883 34.3359C820.883 34.8255 821.024 35.2292 821.305 35.5469C821.592 35.8594 821.964 36.0156 822.422 36.0156C822.881 36.0156 823.251 35.8594 823.532 35.5469C823.813 35.2292 823.954 34.8255 823.954 34.3359C823.954 33.8464 823.813 33.4505 823.532 33.1484C823.251 32.8411 822.881 32.6875 822.422 32.6875C821.964 32.6875 821.592 32.8411 821.305 33.1484C821.024 33.4505 820.883 33.8464 820.883 34.3359ZM831.821 29.0078C831.295 29.0078 830.959 29.1276 830.813 29.3672C830.673 29.6068 830.603 29.8984 830.603 30.2422V30.7344H832.345V32.7812H830.603V38H828.134V32.7812H826.806V30.7344H828.134V29.875C828.134 28.849 828.41 28.099 828.962 27.625C829.519 27.151 830.295 26.9141 831.29 26.9141C831.655 26.9141 832.006 26.9505 832.345 27.0234V29.0547C832.251 29.0234 832.076 29.0078 831.821 29.0078ZM839.548 38.2109C838.601 38.2109 837.827 37.9896 837.228 37.5469C836.634 37.1042 836.304 36.4974 836.236 35.7266H838.689C838.699 35.9401 838.78 36.1068 838.931 36.2266C839.087 36.3411 839.288 36.3984 839.533 36.3984C839.736 36.3984 839.897 36.362 840.017 36.2891C840.142 36.2161 840.205 36.1042 840.205 35.9531C840.205 35.8125 840.16 35.7135 840.072 35.6562C839.983 35.599 839.848 35.5495 839.666 35.5078L838.541 35.2344C837.114 34.8906 836.4 34.1432 836.4 32.9922C836.4 32.237 836.686 31.6302 837.259 31.1719C837.837 30.7083 838.59 30.4766 839.517 30.4766C840.423 30.4766 841.158 30.7005 841.72 31.1484C842.288 31.5964 842.585 32.1849 842.611 32.9141H840.173C840.173 32.7318 840.106 32.5885 839.97 32.4844C839.84 32.375 839.668 32.3203 839.455 32.3203C839.283 32.3203 839.145 32.3594 839.041 32.4375C838.942 32.5104 838.892 32.6146 838.892 32.75C838.892 32.8802 838.934 32.9714 839.017 33.0234C839.106 33.0755 839.267 33.1302 839.502 33.1875L840.83 33.5078C841.491 33.6693 841.978 33.9427 842.291 34.3281C842.608 34.7083 842.767 35.1641 842.767 35.6953C842.767 36.4609 842.473 37.0729 841.884 37.5312C841.301 37.9844 840.522 38.2109 839.548 38.2109ZM843.385 34.3516C843.385 33.5964 843.557 32.9245 843.9 32.3359C844.244 31.7474 844.721 31.2917 845.33 30.9688C845.945 30.6406 846.653 30.4766 847.455 30.4766C848.257 30.4766 848.963 30.6406 849.572 30.9688C850.187 31.2917 850.663 31.7474 851.002 32.3359C851.346 32.9245 851.517 33.5964 851.517 34.3516C851.517 35.1068 851.346 35.776 851.002 36.3594C850.663 36.9427 850.187 37.3984 849.572 37.7266C848.958 38.0495 848.252 38.2109 847.455 38.2109C846.653 38.2109 845.945 38.0495 845.33 37.7266C844.721 37.3984 844.244 36.9427 843.9 36.3594C843.557 35.776 843.385 35.1068 843.385 34.3516ZM845.916 34.3359C845.916 34.8255 846.057 35.2292 846.338 35.5469C846.624 35.8594 846.997 36.0156 847.455 36.0156C847.913 36.0156 848.283 35.8594 848.564 35.5469C848.846 35.2292 848.986 34.8255 848.986 34.3359C848.986 33.8464 848.846 33.4505 848.564 33.1484C848.283 32.8411 847.913 32.6875 847.455 32.6875C846.997 32.6875 846.624 32.8411 846.338 33.1484C846.057 33.4505 845.916 33.8464 845.916 34.3359ZM861.573 30.4766C862.359 30.4766 863.002 30.7344 863.502 31.25C864.007 31.7604 864.26 32.4219 864.26 33.2344V38H861.776V33.8594C861.776 33.474 861.679 33.1719 861.487 32.9531C861.299 32.7344 861.054 32.625 860.752 32.625C860.388 32.625 860.101 32.7448 859.893 32.9844C859.69 33.224 859.588 33.5573 859.588 33.9844V38H857.151V33.8594C857.151 33.474 857.054 33.1745 856.862 32.9609C856.674 32.7474 856.414 32.6406 856.08 32.6406C855.737 32.6406 855.463 32.763 855.26 33.0078C855.062 33.2526 854.963 33.5781 854.963 33.9844V38H852.479V30.7344H854.783L854.885 31.375C855.109 31.099 855.401 30.8802 855.76 30.7188C856.125 30.5573 856.505 30.4766 856.901 30.4766C857.411 30.4766 857.872 30.5885 858.283 30.8125C858.695 31.0365 859.007 31.3359 859.221 31.7109C859.445 31.3151 859.755 31.0104 860.151 30.7969C860.552 30.5833 861.026 30.4766 861.573 30.4766ZM872.706 35.6172C872.555 36.3932 872.141 37.0208 871.463 37.5C870.786 37.974 869.974 38.2109 869.026 38.2109C868.26 38.2109 867.583 38.0495 866.995 37.7266C866.406 37.3984 865.948 36.9401 865.62 36.3516C865.297 35.763 865.135 35.0911 865.135 34.3359C865.135 33.5547 865.297 32.875 865.62 32.2969C865.948 31.7135 866.404 31.2656 866.987 30.9531C867.57 30.6354 868.234 30.4766 868.979 30.4766C869.713 30.4766 870.359 30.6276 870.917 30.9297C871.479 31.2266 871.914 31.6432 872.221 32.1797C872.534 32.7109 872.69 33.3177 872.69 34C872.69 34.4062 872.659 34.7474 872.596 35.0234H867.588C867.609 35.3776 867.75 35.6641 868.01 35.8828C868.271 36.1016 868.609 36.2109 869.026 36.2109C869.333 36.2109 869.599 36.1589 869.823 36.0547C870.052 35.9453 870.213 35.7995 870.307 35.6172H872.706ZM870.143 33.4219C870.133 33.1354 870.01 32.9089 869.776 32.7422C869.542 32.5755 869.245 32.4922 868.885 32.4922C868.531 32.4922 868.237 32.5755 868.003 32.7422C867.768 32.9089 867.641 33.1354 867.62 33.4219H870.143ZM878.073 32.7812H876.729V38H874.245V32.7812H872.917V30.7344H874.245V28.8672H876.729V30.7344H878.073V32.7812ZM878.706 27.0234H881.191V31.375C881.404 31.0885 881.693 30.8672 882.058 30.7109C882.428 30.5547 882.831 30.4766 883.269 30.4766C884.154 30.4766 884.826 30.75 885.284 31.2969C885.743 31.8385 885.972 32.5677 885.972 33.4844V38H883.495V34.0781C883.495 33.5104 883.373 33.1432 883.128 32.9766C882.883 32.8047 882.641 32.7188 882.402 32.7188C881.579 32.7188 881.17 33.1562 881.175 34.0312V38H878.706V27.0234ZM888.402 29.875C887.944 29.875 887.556 29.724 887.238 29.4219C886.925 29.1146 886.769 28.7474 886.769 28.3203C886.769 27.8828 886.925 27.5156 887.238 27.2188C887.556 26.9167 887.944 26.7656 888.402 26.7656C888.86 26.7656 889.243 26.9167 889.55 27.2188C889.863 27.5156 890.019 27.8828 890.019 28.3203C890.019 28.7474 889.863 29.1146 889.55 29.4219C889.243 29.724 888.86 29.875 888.402 29.875ZM887.152 30.7344H889.636V38H887.152V30.7344ZM895.332 30.4766C896.196 30.4766 896.871 30.7526 897.355 31.3047C897.84 31.8516 898.082 32.5781 898.082 33.4844V38H895.605V34.0781C895.605 33.1719 895.236 32.7188 894.496 32.7188C893.741 32.7188 893.363 33.1562 893.363 34.0312V38H890.894V30.7344H892.965L893.09 31.4688C893.314 31.1615 893.626 30.9193 894.027 30.7422C894.428 30.5651 894.863 30.4766 895.332 30.4766ZM907.074 30.7344V38.0312C907.074 38.7656 906.91 39.4115 906.582 39.9688C906.259 40.5312 905.788 40.9635 905.168 41.2656C904.548 41.5729 903.811 41.7266 902.957 41.7266C902.223 41.7266 901.561 41.5911 900.973 41.3203C900.389 41.0495 899.921 40.6667 899.567 40.1719C899.218 39.6823 899.02 39.1172 898.973 38.4766H901.442C901.504 38.8411 901.673 39.112 901.949 39.2891C902.231 39.4661 902.567 39.5547 902.957 39.5547C903.468 39.5547 903.863 39.4245 904.145 39.1641C904.431 38.9089 904.574 38.5677 904.574 38.1406V37.1484C904.371 37.3828 904.08 37.5755 903.699 37.7266C903.324 37.8776 902.908 37.9531 902.449 37.9531C901.788 37.9531 901.192 37.8021 900.66 37.5C900.134 37.1927 899.718 36.763 899.41 36.2109C899.108 35.6536 898.957 35.0078 898.957 34.2734C898.957 33.5182 899.111 32.8542 899.418 32.2812C899.731 31.7083 900.152 31.2656 900.684 30.9531C901.22 30.6354 901.814 30.4766 902.465 30.4766C902.934 30.4766 903.363 30.5573 903.754 30.7188C904.145 30.8802 904.439 31.0938 904.637 31.3594L904.754 30.7344H907.074ZM902.996 35.8047C903.418 35.8047 903.78 35.6562 904.082 35.3594C904.389 35.0625 904.543 34.6797 904.543 34.2109C904.543 33.7318 904.387 33.349 904.074 33.0625C903.767 32.7708 903.4 32.625 902.973 32.625C902.535 32.625 902.179 32.7734 901.902 33.0703C901.626 33.362 901.488 33.7422 901.488 34.2109C901.488 34.6901 901.632 35.0755 901.918 35.3672C902.21 35.6589 902.569 35.8047 902.996 35.8047ZM912.997 29.875C912.539 29.875 912.151 29.724 911.833 29.4219C911.52 29.1146 911.364 28.7474 911.364 28.3203C911.364 27.8828 911.52 27.5156 911.833 27.2188C912.151 26.9167 912.539 26.7656 912.997 26.7656C913.455 26.7656 913.838 26.9167 914.145 27.2188C914.458 27.5156 914.614 27.8828 914.614 28.3203C914.614 28.7474 914.458 29.1146 914.145 29.4219C913.838 29.724 913.455 29.875 912.997 29.875ZM911.747 30.7344H914.231V38H911.747V30.7344ZM924.583 30.4766C925.37 30.4766 926.013 30.7344 926.513 31.25C927.018 31.7604 927.271 32.4219 927.271 33.2344V38H924.786V33.8594C924.786 33.474 924.69 33.1719 924.497 32.9531C924.31 32.7344 924.065 32.625 923.763 32.625C923.398 32.625 923.112 32.7448 922.903 32.9844C922.7 33.224 922.599 33.5573 922.599 33.9844V38H920.161V33.8594C920.161 33.474 920.065 33.1745 919.872 32.9609C919.685 32.7474 919.424 32.6406 919.091 32.6406C918.747 32.6406 918.474 32.763 918.271 33.0078C918.073 33.2526 917.974 33.5781 917.974 33.9844V38H915.489V30.7344H917.794L917.896 31.375C918.12 31.099 918.411 30.8802 918.771 30.7188C919.135 30.5573 919.515 30.4766 919.911 30.4766C920.422 30.4766 920.883 30.5885 921.294 30.8125C921.706 31.0365 922.018 31.3359 922.232 31.7109C922.456 31.3151 922.765 31.0104 923.161 30.7969C923.562 30.5833 924.036 30.4766 924.583 30.4766ZM933.044 30.4766C933.747 30.4766 934.37 30.638 934.912 30.9609C935.458 31.2786 935.883 31.7318 936.185 32.3203C936.492 32.9089 936.646 33.5807 936.646 34.3359C936.646 35.0911 936.492 35.763 936.185 36.3516C935.883 36.9401 935.456 37.3984 934.904 37.7266C934.357 38.0495 933.737 38.2109 933.044 38.2109C932.149 38.2109 931.451 37.987 930.951 37.5391V41.4688H928.466V30.7344H930.537L930.662 31.4688C930.906 31.151 931.237 30.9062 931.654 30.7344C932.07 30.5625 932.534 30.4766 933.044 30.4766ZM932.552 35.9844C933.021 35.9844 933.399 35.8333 933.685 35.5312C933.971 35.224 934.115 34.8307 934.115 34.3516C934.115 33.8724 933.971 33.4818 933.685 33.1797C933.399 32.8724 933.021 32.7188 932.552 32.7188C932.083 32.7188 931.698 32.8698 931.396 33.1719C931.099 33.4688 930.951 33.862 930.951 34.3516C930.951 34.8411 931.099 35.237 931.396 35.5391C931.698 35.8359 932.083 35.9844 932.552 35.9844ZM937.279 34.3516C937.279 33.5964 937.451 32.9245 937.795 32.3359C938.138 31.7474 938.615 31.2917 939.224 30.9688C939.839 30.6406 940.547 30.4766 941.349 30.4766C942.151 30.4766 942.857 30.6406 943.467 30.9688C944.081 31.2917 944.558 31.7474 944.896 32.3359C945.24 32.9245 945.412 33.5964 945.412 34.3516C945.412 35.1068 945.24 35.776 944.896 36.3594C944.558 36.9427 944.081 37.3984 943.467 37.7266C942.852 38.0495 942.146 38.2109 941.349 38.2109C940.547 38.2109 939.839 38.0495 939.224 37.7266C938.615 37.3984 938.138 36.9427 937.795 36.3594C937.451 35.776 937.279 35.1068 937.279 34.3516ZM939.81 34.3359C939.81 34.8255 939.951 35.2292 940.232 35.5469C940.519 35.8594 940.891 36.0156 941.349 36.0156C941.808 36.0156 942.177 35.8594 942.459 35.5469C942.74 35.2292 942.881 34.8255 942.881 34.3359C942.881 33.8464 942.74 33.4505 942.459 33.1484C942.177 32.8411 941.808 32.6875 941.349 32.6875C940.891 32.6875 940.519 32.8411 940.232 33.1484C939.951 33.4505 939.81 33.8464 939.81 34.3359ZM950.49 30.6719C950.735 30.6719 950.954 30.6927 951.147 30.7344V32.8984L950.842 32.8828C950.201 32.8828 949.709 33.0469 949.365 33.375C949.027 33.6979 948.858 34.1562 948.858 34.75V38H946.373V30.7344H948.647L948.811 31.6641C948.93 31.3359 949.139 31.0885 949.436 30.9219C949.733 30.7552 950.084 30.6719 950.49 30.6719ZM956.694 32.7812H955.35V38H952.866V32.7812H951.538V30.7344H952.866V28.8672H955.35V30.7344H956.694V32.7812ZM965.108 30.7344V38H962.725V37.2812C962.481 37.5677 962.147 37.7943 961.725 37.9609C961.303 38.1276 960.848 38.2109 960.358 38.2109C959.686 38.2109 959.09 38.0547 958.569 37.7422C958.053 37.4245 957.65 36.9818 957.358 36.4141C957.072 35.8411 956.928 35.1797 956.928 34.4297C956.928 33.6484 957.079 32.9609 957.382 32.3672C957.689 31.7682 958.119 31.3047 958.671 30.9766C959.228 30.6432 959.869 30.4766 960.592 30.4766C961.598 30.4766 962.361 30.7708 962.882 31.3594L963.046 30.7344H965.108ZM961.03 35.9688C961.499 35.9688 961.882 35.8203 962.178 35.5234C962.481 35.2214 962.632 34.8255 962.632 34.3359C962.632 33.8464 962.481 33.4531 962.178 33.1562C961.882 32.8542 961.499 32.7031 961.03 32.7031C960.561 32.7031 960.181 32.8568 959.889 33.1641C959.603 33.4661 959.46 33.8568 959.46 34.3359C959.46 34.8151 959.603 35.2083 959.889 35.5156C960.181 35.8177 960.561 35.9688 961.03 35.9688ZM970.819 30.4766C971.684 30.4766 972.358 30.7526 972.843 31.3047C973.327 31.8516 973.569 32.5781 973.569 33.4844V38H971.093V34.0781C971.093 33.1719 970.723 32.7188 969.983 32.7188C969.228 32.7188 968.851 33.1562 968.851 34.0312V38H966.382V30.7344H968.452L968.577 31.4688C968.801 31.1615 969.114 30.9193 969.515 30.7422C969.916 30.5651 970.351 30.4766 970.819 30.4766ZM979.281 32.7812H977.937V38H975.453V32.7812H974.124V30.7344H975.453V28.8672H977.937V30.7344H979.281V32.7812ZM981.008 38.2109C980.58 38.2109 980.231 38.0755 979.961 37.8047C979.695 37.5286 979.562 37.1979 979.562 36.8125C979.562 36.4271 979.695 36.0964 979.961 35.8203C980.231 35.5443 980.58 35.4062 981.008 35.4062C981.424 35.4062 981.768 35.5469 982.039 35.8281C982.31 36.1042 982.445 36.4323 982.445 36.8125C982.445 37.1875 982.31 37.5156 982.039 37.7969C981.768 38.0729 981.424 38.2109 981.008 38.2109Z" fill="white"/>
<path d="M1407 30.5862L1411.95 25.6362L1413.36 27.0502L1408.41 32.0002L1413.36 36.9502L1411.95 38.3642L1407 33.4142L1402.05 38.3642L1400.64 36.9502L1405.59 32.0002L1400.64 27.0502L1402.05 25.6362L1407 30.5862Z" fill="#00798C" fill-opacity="0.1"/>
</g>
<defs>
<clipPath id="clip0">
<rect width="1440" height="64" fill="white"/>
</clipPath>
</defs>
</svg>
