<svg width="64" height="64" viewBox="0 0 64 64" fill="none" xmlns="http://www.w3.org/2000/svg">
<rect width="64" height="64" rx="32" fill="#5138EE" fill-opacity="0.06"/>
<path d="M36.2986 36.6773L33.348 42.8773C33.2921 42.9946 33.2086 43.0964 33.1046 43.1742C33.0006 43.2519 32.8793 43.3032 32.751 43.3235C32.6228 43.3439 32.4915 43.3327 32.3686 43.291C32.2456 43.2492 32.1347 43.1782 32.0453 43.084L27.3226 38.0987C27.1965 37.9656 27.0284 37.8799 26.8466 37.856L20.0373 36.9653C19.9086 36.9484 19.7861 36.9004 19.6801 36.8255C19.5741 36.7506 19.4879 36.6511 19.429 36.5354C19.3701 36.4198 19.3402 36.2916 19.3419 36.1619C19.3435 36.0321 19.3767 35.9047 19.4386 35.7907L22.7213 29.7587C22.8086 29.5973 22.8377 29.4109 22.804 29.2307L21.5466 22.48C21.5228 22.3522 21.5304 22.2206 21.5688 22.0964C21.6073 21.9722 21.6754 21.8593 21.7673 21.7674C21.8593 21.6755 21.9722 21.6073 22.0963 21.5689C22.2205 21.5304 22.3522 21.5228 22.48 21.5467L29.2306 22.804C29.4109 22.8378 29.5973 22.8086 29.7586 22.7213L35.7906 19.4387C35.9048 19.3768 36.0323 19.3436 36.1621 19.342C36.292 19.3404 36.4202 19.3704 36.5359 19.4295C36.6515 19.4885 36.7511 19.5749 36.8259 19.681C36.9007 19.7871 36.9485 19.9099 36.9653 20.0387L37.856 26.8467C37.8799 27.0285 37.9656 27.1965 38.0986 27.3227L43.084 32.0453C43.1782 32.1347 43.2492 32.2456 43.2909 32.3686C43.3326 32.4916 43.3438 32.6228 43.3235 32.7511C43.3031 32.8793 43.2519 33.0007 43.1741 33.1047C43.0964 33.2087 42.9945 33.2922 42.8773 33.348L36.6773 36.2987C36.5113 36.3776 36.3776 36.5114 36.2986 36.6773ZM37.3613 39.2467L39.2466 37.3613L44.904 43.0173L43.0173 44.904L37.3613 39.2467Z" fill="#5138EE"/>
</svg>
