<svg width="64" height="64" viewBox="0 0 64 64" fill="none" xmlns="http://www.w3.org/2000/svg">
<rect width="64" height="64" rx="32" fill="#5EC6E8" fill-opacity="0.08"/>
<path d="M22.5723 41.428C21.3324 40.1912 20.3491 38.7216 19.6788 37.1037C19.0086 35.4857 18.6648 33.7512 18.667 32C18.667 24.636 24.6363 18.6666 32.0003 18.6666C39.3643 18.6666 45.3337 24.636 45.3337 32C45.3337 39.364 39.3643 45.3333 32.0003 45.3333H18.667L22.5723 41.428ZM26.667 33.3333C26.667 34.7478 27.2289 36.1043 28.2291 37.1045C29.2293 38.1047 30.5858 38.6666 32.0003 38.6666C33.4148 38.6666 34.7714 38.1047 35.7716 37.1045C36.7718 36.1043 37.3337 34.7478 37.3337 33.3333H26.667Z" fill="#5EC6E8"/>
</svg>
