<svg width="45" height="45" viewBox="0 0 45 45" fill="none" xmlns="http://www.w3.org/2000/svg">
<path d="M32.3805 13.9864L19.3419 26.9296L14.8067 22.4276C14.2399 21.8649 13.3895 21.8649 12.8226 22.4276C12.2557 22.9903 12.2557 23.8344 12.8226 24.3972L18.4916 30.0246C18.775 30.306 19.0585 30.306 19.6254 30.306C20.1923 30.306 20.4757 30.306 20.7591 30.0246L34.9315 15.956C35.4984 15.3932 35.4984 14.5492 34.9315 13.9864C34.0811 13.705 32.9474 13.705 32.3805 13.9864Z" fill="white"/>
<path d="M22.5 0C10.0385 0 0 10.0385 0 22.5C0 34.9615 10.0385 45 22.5 45C34.9615 45 45 34.9615 45 22.5C45 10.0385 34.9615 0 22.5 0ZM22.5 41.5385C12.1154 41.5385 3.46154 32.8846 3.46154 22.5C3.46154 12.1154 12.1154 3.46154 22.5 3.46154C32.8846 3.46154 41.5385 12.1154 41.5385 22.5C41.5385 32.8846 32.8846 41.5385 22.5 41.5385Z" fill="white"/>
</svg>
