<svg width="36" height="36" viewBox="0 0 36 36" fill="none" xmlns="http://www.w3.org/2000/svg">
<path d="M10.5 4.25L23.25 21.25" stroke="black" stroke-width="1.5" stroke-linecap="round"/>
<path d="M14.75 21.25L27.5 4.25" stroke="black" stroke-width="1.5" stroke-linecap="round"/>
<path fill-rule="evenodd" clip-rule="evenodd" d="M21.8335 25.5C21.8335 27.8472 23.7363 29.75 26.0835 29.75C28.4307 29.75 30.3335 27.8472 30.3335 25.5C30.3335 23.1528 28.4307 21.25 26.0835 21.25C23.7363 21.25 21.8335 23.1528 21.8335 25.5Z" stroke="black" stroke-width="1.5"/>
<path fill-rule="evenodd" clip-rule="evenodd" d="M7.6665 25.5C7.6665 27.8472 9.56929 29.75 11.9165 29.75C14.2637 29.75 16.1665 27.8472 16.1665 25.5C16.1665 23.1528 14.2637 21.25 11.9165 21.25C9.56929 21.25 7.6665 23.1528 7.6665 25.5Z" stroke="black" stroke-width="1.5"/>
</svg>
