<?xml version="1.0" encoding="UTF-8"?>
<svg xmlns="http://www.w3.org/2000/svg" xmlns:xlink="http://www.w3.org/1999/xlink" viewBox="0 0 30 30" width="30px" height="30px">
<g id="surface46728815">
<path style=" stroke:none;fill-rule:nonzero;fill:rgb(0%,47.450981%,54.901963%);fill-opacity:1;" d="M 15 2 C 11.144531 2 8 5.144531 8 9 L 8 11 L 6 11 C 4.894531 11 4 11.894531 4 13 L 4 25 C 4 26.105469 4.894531 27 6 27 L 24 27 C 25.105469 27 26 26.105469 26 25 L 26 13 C 26 11.894531 25.105469 11 24 11 L 10 11 L 10 9 C 10 6.226562 12.226562 4 15 4 C 17.183594 4 19.023438 5.394531 19.707031 7.332031 C 19.820312 7.679688 20.113281 7.933594 20.46875 8.003906 C 20.824219 8.074219 21.191406 7.945312 21.425781 7.664062 C 21.660156 7.386719 21.722656 7.003906 21.59375 6.664062 C 20.632812 3.949219 18.039062 2 15 2 Z M 15 2 "/>
</g>
</svg>
