<?xml version="1.0" encoding="UTF-8"?>
<svg xmlns="http://www.w3.org/2000/svg" xmlns:xlink="http://www.w3.org/1999/xlink" viewBox="0 0 48 48" width="48px" height="48px">
<g id="surface10612508">
<path style=" stroke:none;fill-rule:nonzero;fill:rgb(0%,47.450981%,54.901963%);fill-opacity:1;" d="M 24 4 C 20.703125 4 18 6.703125 18 10 L 7.5 10 C 6.960938 9.992188 6.457031 10.277344 6.183594 10.742188 C 5.910156 11.210938 5.910156 11.789062 6.183594 12.257812 C 6.457031 12.722656 6.960938 13.007812 7.5 13 L 10 13 L 10 38.5 C 10 41.53125 12.46875 44 15.5 44 L 32.5 44 C 35.53125 44 38 41.53125 38 38.5 L 38 13 L 40.5 13 C 41.039062 13.007812 41.542969 12.722656 41.816406 12.257812 C 42.089844 11.789062 42.089844 11.210938 41.816406 10.742188 C 41.542969 10.277344 41.039062 9.992188 40.5 10 L 30 10 C 30 6.703125 27.296875 4 24 4 Z M 24 7 C 25.675781 7 27 8.324219 27 10 L 21 10 C 21 8.324219 22.324219 7 24 7 Z M 19.5 18 C 20.328125 18 21 18.671875 21 19.5 L 21 34.5 C 21 35.328125 20.328125 36 19.5 36 C 18.671875 36 18 35.328125 18 34.5 L 18 19.5 C 18 18.671875 18.671875 18 19.5 18 Z M 28.5 18 C 29.328125 18 30 18.671875 30 19.5 L 30 34.5 C 30 35.328125 29.328125 36 28.5 36 C 27.671875 36 27 35.328125 27 34.5 L 27 19.5 C 27 18.671875 27.671875 18 28.5 18 Z M 28.5 18 "/>
</g>
</svg>
