<svg width="120" height="20" viewBox="0 0 120 20" fill="none" xmlns="http://www.w3.org/2000/svg">
<path d="M44.2752 10.5028C45.2501 10.8473 46.0282 11.3734 46.6095 12.081C47.2001 12.7793 47.4954 13.6825 47.4954 14.7905C47.4954 16.3547 46.9095 17.5512 45.7376 18.3799C44.5658 19.2086 42.9627 19.6229 40.9284 19.6229H33.1239V1.28492H40.9565C42.9346 1.28492 44.4861 1.75047 45.6111 2.68156C46.736 3.60335 47.2985 4.82775 47.2985 6.35475C47.2985 7.42551 47.0267 8.31006 46.4829 9.00838C45.9486 9.69739 45.2126 10.1955 44.2752 10.5028ZM37.2722 4.80447V8.98045H40.7596C41.5284 8.98045 42.1143 8.77095 42.5174 8.35196C42.9205 7.93296 43.1221 7.4581 43.1221 6.92737C43.1221 6.39665 42.9252 5.91248 42.5315 5.47486C42.1377 5.02793 41.5471 4.80447 40.7596 4.80447H37.2722ZM40.9846 16.1034C41.6971 16.1034 42.269 15.9218 42.7002 15.5587C43.1314 15.1955 43.3471 14.7114 43.3471 14.1061C43.3471 13.5196 43.1221 13.0261 42.6721 12.6257C42.2221 12.216 41.6596 12.0112 40.9846 12.0112H37.2722V16.1034H40.9846Z" fill="#333333"/>
<path d="M56.9311 6.60615C57.353 6.60615 57.7561 6.64339 58.1405 6.71788V10.1816C58.0092 10.1629 57.8077 10.1536 57.5358 10.1536C56.3827 10.1536 55.4921 10.4562 54.864 11.0615C54.2453 11.6574 53.9359 12.5 53.9359 13.5894V19.6229H49.9141V6.71788H53.5984L53.8515 8.46369C54.0671 7.84916 54.4468 7.38827 54.9905 7.08101C55.5343 6.76443 56.1811 6.60615 56.9311 6.60615Z" fill="#333333"/>
<path d="M73.862 6.71788V19.6229H69.9949V18.1425C69.5543 18.7104 68.9402 19.162 68.1527 19.4972C67.3653 19.8324 66.5122 20 65.5934 20C64.3841 20 63.3107 19.7207 62.3732 19.162C61.4451 18.594 60.7279 17.8073 60.2217 16.8017C59.7154 15.7868 59.4623 14.6089 59.4623 13.2682C59.4623 11.8715 59.7342 10.6471 60.2779 9.59497C60.8217 8.54283 61.5857 7.72812 62.5701 7.15084C63.5638 6.56425 64.6935 6.27095 65.959 6.27095C67.8246 6.27095 69.2449 6.83892 70.2199 7.97486L70.4871 6.71788H73.862ZM66.6622 16.3967C67.5996 16.3967 68.359 16.0987 68.9402 15.5028C69.5308 14.8976 69.8261 14.0968 69.8261 13.1006C69.8261 12.1322 69.5308 11.3547 68.9402 10.7682C68.359 10.1723 67.5996 9.8743 66.6622 9.8743C65.7247 9.8743 64.9747 10.1769 64.4122 10.7821C63.8497 11.378 63.5685 12.1601 63.5685 13.1285C63.5685 14.0968 63.8497 14.8836 64.4122 15.4888C64.9841 16.094 65.7341 16.3967 66.6622 16.3967Z" fill="#333333"/>
<path d="M84.5633 6.27095C86.1195 6.27095 87.3289 6.75512 88.1914 7.72346C89.0632 8.69181 89.4991 9.99069 89.4991 11.6201V19.6229H85.4633V12.5559C85.4633 10.7868 84.7321 9.90224 83.2696 9.90224C82.5009 9.90224 81.9196 10.1257 81.5259 10.5726C81.1321 11.0196 80.9353 11.6434 80.9353 12.4441V19.6229H76.9416V6.71788H80.2743L80.5415 8.12849C80.9446 7.56052 81.5024 7.10894 82.2149 6.77374C82.9368 6.43855 83.7196 6.27095 84.5633 6.27095Z" fill="#333333"/>
<path d="M106.233 0V19.6229H102.886L102.661 18.0726C102.221 18.6872 101.611 19.162 100.833 19.4972C100.055 19.8324 99.1927 20 98.2458 20C96.999 20 95.888 19.716 94.9131 19.148C93.9475 18.5708 93.1928 17.77 92.6491 16.7458C92.1053 15.7123 91.8335 14.5158 91.8335 13.1564C91.8335 11.8063 92.1053 10.6052 92.6491 9.55307C93.1928 8.50093 93.9475 7.69088 94.9131 7.12291C95.888 6.55493 96.999 6.27095 98.2458 6.27095C99.1083 6.27095 99.877 6.39199 100.552 6.63408C101.227 6.86685 101.785 7.21136 102.225 7.6676V0H106.233ZM99.0333 16.3967C99.9708 16.3967 100.73 16.0987 101.311 15.5028C101.902 14.8976 102.197 14.0968 102.197 13.1006C102.197 12.1322 101.902 11.3547 101.311 10.7682C100.73 10.1723 99.9708 9.8743 99.0333 9.8743C98.0958 9.8743 97.3458 10.1769 96.7833 10.7821C96.2209 11.378 95.9396 12.1601 95.9396 13.1285C95.9396 14.0968 96.2209 14.8836 96.7833 15.4888C97.3552 16.094 98.1052 16.3967 99.0333 16.3967Z" fill="#333333"/>
<path d="M114.347 20C112.697 20 111.347 19.6136 110.297 18.8408C109.257 18.068 108.68 17.0112 108.567 15.6704H112.533C112.552 16.108 112.73 16.4479 113.067 16.6899C113.405 16.932 113.831 17.0531 114.347 17.0531C114.806 17.0531 115.172 16.9693 115.444 16.8017C115.716 16.6248 115.852 16.3641 115.852 16.0196C115.852 15.7123 115.744 15.4888 115.528 15.3492C115.322 15.2002 115.036 15.0885 114.67 15.014L112.589 14.4972C110.114 13.9106 108.877 12.6164 108.877 10.6145C108.877 9.3203 109.374 8.27281 110.367 7.47207C111.371 6.67132 112.678 6.27095 114.291 6.27095C115.884 6.27095 117.174 6.66201 118.158 7.44413C119.152 8.22626 119.667 9.25512 119.705 10.5307H115.795C115.777 10.149 115.622 9.84637 115.331 9.62291C115.041 9.39013 114.666 9.27374 114.206 9.27374C113.803 9.27374 113.485 9.35754 113.25 9.52514C113.025 9.69274 112.913 9.93017 112.913 10.2374C112.913 10.5447 113.006 10.7588 113.194 10.8799C113.391 10.9916 113.719 11.1034 114.178 11.2151L116.597 11.7877C117.769 12.0577 118.627 12.5326 119.17 13.2123C119.723 13.8827 120 14.6834 120 15.6145C120 16.946 119.489 18.0121 118.467 18.8129C117.455 19.6043 116.081 20 114.347 20Z" fill="#333333"/>
<path d="M27.891 1.25698H30.2816L23.0817 19.6229H20.6912L27.891 1.25698Z" fill="#333333"/>
<path d="M19.6672 1.88667C19.4273 1.89519 19.0588 1.96328 18.5617 2.09095C18.0647 2.21861 17.7091 2.35054 17.4948 2.48672C17.1863 2.6995 16.9764 3.10804 16.865 3.71234C16.7621 4.31664 16.7107 5.08266 16.7107 6.01039V19.2752H15.5924L4.5376 4.45282V13.7982C4.5376 14.8451 4.60187 15.6494 4.73041 16.2111C4.86753 16.7729 5.0732 17.1729 5.34742 17.4112C5.54453 17.5985 5.95158 17.773 6.56859 17.9347C7.1856 18.0964 7.59266 18.1815 7.78976 18.19V19.0965H0.308505V18.19C0.539884 18.173 0.929801 18.0921 1.47825 17.9474C2.02671 17.7942 2.36949 17.6581 2.50661 17.5389C2.80654 17.3006 3.01221 16.9389 3.12362 16.4537C3.23502 15.9601 3.29072 15.1217 3.29072 13.9386V5.01457C3.29072 4.62305 3.22217 4.23153 3.08505 3.84001C2.94794 3.44849 2.76369 3.14634 2.53231 2.93356C2.22381 2.65269 1.8039 2.41437 1.27258 2.21861C0.749839 2.01434 0.325644 1.9037 0 1.88667V0.980224H5.20603L15.4638 14.794V6.17635C15.4638 5.12096 15.3953 4.31239 15.2582 3.75064C15.121 3.18039 14.9239 2.80164 14.6669 2.61439C14.4269 2.45267 14.0327 2.29522 13.4843 2.14201C12.9444 1.98881 12.533 1.9037 12.2502 1.88667V0.980224H19.6672V1.88667Z" fill="#333333"/>
</svg>
