<svg width="180" height="96" viewBox="0 0 180 96" fill="none" xmlns="http://www.w3.org/2000/svg">
<path d="M65.8512 58.328V58.5187H57.7174V58.328C58.6315 58.1692 58.9915 57.9466 59.0891 57.2476V46.6966C59.0891 44.7568 58.3709 43.8033 56.9009 43.8033C56.4149 43.8129 55.9445 43.9718 55.557 44.2573C55.1694 44.5427 54.8845 44.9402 54.7429 45.3928C54.8096 45.7602 54.8426 46.1327 54.8413 46.5059V56.4251C54.8413 57.6013 55.2004 58.0785 56.3088 58.3322V58.5229H48.5349V58.328C49.645 58.076 50.0023 57.5971 50.0023 56.4209V46.6924C50.0023 44.7526 49.2505 43.7991 47.8133 43.7991C47.3563 43.8032 46.9122 43.9464 46.5431 44.2088C46.174 44.4711 45.8986 44.8393 45.7555 45.2617V56.4209C45.7555 57.5971 46.1146 58.0743 47.2229 58.328V58.5187H38.9917V58.328C40.2648 58.0424 40.9183 57.5013 40.9183 56.2277V46.0926C40.9183 44.4073 40.4616 43.8982 38.9917 43.7713V43.5806L45.7529 41.7685V44.7568C46.0378 43.845 46.6251 43.0509 47.423 42.4986C48.221 41.9464 49.1846 41.6671 50.1629 41.7046C52.6126 41.7046 54.1482 42.9127 54.6376 44.8845C54.956 43.939 55.5795 43.1188 56.4152 42.5459C57.251 41.973 58.2545 41.6779 59.2764 41.7046C62.3148 41.7046 63.9151 43.6125 63.9151 46.5059V56.2344C63.9237 57.5055 64.5771 58.0466 65.8512 58.328Z" fill="#8C87A6"/>
<path d="M83.1325 55.0576C82.5775 57.6619 80.8459 59.0002 78.5576 59.0002C78.1452 59.0369 77.7293 58.9934 77.3343 58.8721C76.9393 58.7509 76.5731 58.5543 76.2569 58.294C75.9407 58.0336 75.6809 57.7146 75.4926 57.3556C75.3043 56.9965 75.1913 56.6046 75.1601 56.2027L75.0954 55.9506C74.7968 56.8726 74.1923 57.6722 73.3768 58.224C72.5613 58.7759 71.5808 59.0489 70.5888 59.0002C70.0277 59.0427 69.4636 58.9713 68.9324 58.7905C68.4012 58.6096 67.9143 58.3233 67.5028 57.9497C67.0913 57.5761 66.764 57.1233 66.5417 56.6201C66.3195 56.1169 66.207 55.5742 66.2116 55.0265C66.2116 52.197 68.5637 50.3529 72.3203 49.5893L75.0315 49.0491V48.377C75.0315 45.9289 74.1166 44.2444 71.3725 44.2444C69.25 44.2444 67.7472 45.2299 67.0282 47.7099L66.7692 47.6461C67.2871 43.9899 69.7739 41.7006 73.6289 41.7006C77.9732 41.7006 79.8679 44.4032 79.8679 48.4727V54.8627C79.8679 55.9758 80.4229 56.5479 81.142 56.5479C81.7626 56.5479 82.4808 56.1985 82.8399 55.0223L83.1325 55.0576ZM75.0315 55.4079V49.843L73.7575 50.0656C71.2094 50.5747 70.72 52.1323 70.72 53.6899C70.72 55.3113 71.5365 56.5832 73.1041 56.5832C73.5122 56.6133 73.9195 56.5155 74.2663 56.304C74.6132 56.0925 74.8813 55.7785 75.0315 55.4079Z" fill="#8C87A6"/>
<path d="M100.871 58.3282V58.5189H92.6398V58.3282C93.7179 58.0762 94.1072 57.5973 94.1072 56.4211V46.7287C94.1072 44.7889 93.3562 43.8034 91.8206 43.8034C91.3 43.7991 90.7897 43.9446 90.3538 44.2217C89.9179 44.4989 89.576 44.8953 89.3709 45.361V56.4253C89.3709 57.6015 89.73 58.0787 90.8384 58.3324V58.5231H82.6079V58.3282C83.882 58.0426 84.5354 57.5015 84.5354 56.2279V46.0927C84.5354 44.4075 84.0779 43.8983 82.6079 43.7715V43.5808L89.3701 41.7687V44.8863C89.7013 43.9164 90.3511 43.0795 91.2193 42.5045C92.0875 41.9296 93.126 41.6486 94.1745 41.7048C97.282 41.7048 98.9436 43.5531 98.9436 46.5372V56.2346C98.9445 57.5057 99.5979 58.0468 100.871 58.3282Z" fill="#8C87A6"/>
<path d="M111.978 54.7718C111.26 57.0922 109.496 59.0001 106.654 59.0001C103.91 59.0001 102.603 57.3149 102.603 54.8357V42.8808H100.709V42.722C103.312 41.2942 105.572 39.3437 107.34 37H107.471V42.2457H110.77V42.8808H107.467V54.1039C107.467 55.5666 108.088 56.552 109.296 56.552C109.858 56.5511 110.402 56.3652 110.841 56.0245C111.28 55.6839 111.587 55.2085 111.713 54.676L111.978 54.7718Z" fill="#8C87A6"/>
<path d="M125.536 52.7689C124.719 57.3467 121.747 59.0001 118.905 59.0001C115.115 59.0001 111.654 56.1386 111.654 50.6703C111.654 45.4565 114.627 41.7046 119.102 41.7046C122.27 41.7046 125.537 43.6444 125.504 48.8901H115.443C115.77 52.9596 117.926 55.217 121.095 55.217C121.981 55.2964 122.871 55.0947 123.63 54.642C124.389 54.1893 124.978 53.5099 125.308 52.7051L125.536 52.7689ZM115.409 47.7425V48.092H121.06C121.093 44.0225 120.015 42.5918 118.384 42.5918C116.553 42.5951 115.409 44.566 115.409 47.7425Z" fill="#8C87A6"/>
<path d="M138.048 41.7046V46.2832H137.885C137.351 46.0549 136.768 45.9565 136.186 45.9967C134.063 45.9967 132.658 47.1099 132.658 51.3382V56.2344C132.658 57.6626 133.475 58.1095 135.238 58.3347V58.5254H125.896V58.328C127.17 58.0423 127.824 57.5013 127.824 56.2277V46.3782C127.824 44.566 127.333 43.9301 125.896 43.8032V43.6125L132.462 41.7685V48.8901H132.626C132.885 43.7713 134.847 41.7046 137.689 41.7046H138.048Z" fill="#8C87A6"/>
<path d="M136.611 56.3293C136.622 55.6361 136.913 54.9748 137.42 54.4878C137.927 54.0008 138.61 53.7269 139.322 53.725C140.029 53.7341 140.704 54.0114 141.204 54.4979C141.704 54.9843 141.989 55.6415 141.998 56.3293C142.002 57.0243 141.722 57.6924 141.22 58.187C140.719 58.6817 140.036 58.9626 139.322 58.9681C138.966 58.969 138.613 58.9014 138.283 58.7691C137.954 58.6368 137.655 58.4424 137.403 58.1972C137.151 57.952 136.951 57.6608 136.815 57.3402C136.679 57.0197 136.61 56.6761 136.611 56.3293Z" fill="#8C87A6"/>
</svg>
