<svg width="55" height="34" viewBox="0 0 55 34" fill="none" xmlns="http://www.w3.org/2000/svg">
<path fill-rule="evenodd" clip-rule="evenodd" d="M27.2523 29.5305C24.3953 31.9688 20.6893 33.4408 16.6396 33.4408C7.60351 33.4408 0.27832 26.1123 0.27832 17.0721C0.27832 8.03189 7.60351 0.703369 16.6396 0.703369C20.6893 0.703369 24.3953 2.17532 27.2523 4.61362C30.1093 2.17532 33.8153 0.703369 37.865 0.703369C46.9011 0.703369 54.2263 8.03189 54.2263 17.0721C54.2263 26.1123 46.9011 33.4408 37.865 33.4408C33.8153 33.4408 30.1093 31.9688 27.2523 29.5305Z" fill="#ED0006"/>
<path fill-rule="evenodd" clip-rule="evenodd" d="M27.252 29.5305C30.7699 26.5282 33.0005 22.0608 33.0005 17.0721C33.0005 12.0834 30.7699 7.61593 27.252 4.61361C30.109 2.17532 33.815 0.703369 37.8646 0.703369C46.9007 0.703369 54.2259 8.03189 54.2259 17.0721C54.2259 26.1123 46.9007 33.4408 37.8646 33.4408C33.815 33.4408 30.109 31.9688 27.252 29.5305Z" fill="#F9A000"/>
<path fill-rule="evenodd" clip-rule="evenodd" d="M27.2524 29.5305C30.7702 26.5282 33.0009 22.0608 33.0009 17.0721C33.0009 12.0835 30.7703 7.61609 27.2524 4.61377C23.7346 7.61609 21.5039 12.0835 21.5039 17.0722C21.5039 22.0608 23.7345 26.5282 27.2524 29.5305Z" fill="#FF5E00"/>
</svg>
