<svg width="180" height="96" viewBox="0 0 180 96" fill="none" xmlns="http://www.w3.org/2000/svg">
<path d="M35.0339 56.7207C39.1554 56.7207 42.7083 54.6174 42.7083 50.9224C42.7083 42.7364 31.2252 46.6588 31.2252 40.5478C31.2252 38.9277 32.2769 37.6202 34.4371 37.6202C38.5869 37.6202 37.5352 42.6796 40.605 42.6796C41.8271 42.6796 42.4241 41.9974 42.4241 40.9173C42.4525 38.5582 39.2975 36 34.5223 36C29.8324 36 26.9901 38.5013 26.9901 41.9121C27.0186 50.3254 38.5016 46.1757 38.5016 52.2298C38.5016 53.9637 37.1941 55.1006 35.2045 55.1006C30.4009 55.1006 31.1683 49.9275 28.326 49.8707C27.1607 49.8707 26.6206 50.6097 26.6206 51.6045C26.6206 53.8784 29.6335 56.7207 35.0339 56.7207ZM57.0371 53.5373V43.1343C57.0371 42.6512 56.696 42.5375 55.957 42.6227L52.3188 43.1627C51.9777 43.2196 51.7503 43.4754 51.7503 43.7597V43.8449C51.7503 44.4703 52.8873 44.7544 52.8873 46.0051V51.775C52.8873 53.7931 51.8072 55.1006 50.4428 55.1006C48.8796 55.1006 48.0837 53.8784 48.0837 51.235L48.1689 43.1343C48.1689 42.6512 47.7427 42.5375 47.0036 42.6227L43.4222 43.1627C43.0527 43.2196 42.8253 43.4754 42.8253 43.7597V43.8449C42.8253 44.4703 43.9339 44.7544 43.9339 46.0051V50.8087C43.9339 54.7027 46.293 56.7207 49.2207 56.7207C51.1819 56.7207 52.5746 56.0102 53.342 54.7596C53.4273 56.1523 54.2516 56.6071 55.8717 56.6071C57.4634 56.6071 58.4014 56.4365 58.4014 55.7828C58.4014 54.7311 57.0371 55.7828 57.0371 53.5373ZM70.9634 42.7933C68.0643 42.7933 67.1263 42.509 65.3071 42.509C61.3278 42.509 58.5708 44.925 58.5708 48.4779C58.5708 51.7182 61.4131 54.1058 65.2219 54.1058C65.5914 54.1058 65.9609 54.0774 66.3304 54.0489C67.4389 54.2763 68.0927 55.2427 68.0927 56.6639C68.0927 58.2557 66.9841 59.3357 65.2219 59.3357C61.8963 59.2789 62.5217 55.0153 60.1909 55.0153C59.0256 55.0153 58.5139 55.8112 58.5139 56.6071C58.5139 58.8241 60.9584 60.5295 65.1366 60.5295C69.1728 60.5295 72.2709 58.9662 72.2709 56.5502C72.2709 55.0437 71.3898 53.8784 68.8601 53.3099C70.8213 52.372 72.0435 50.6097 72.0435 48.3642C72.0435 46.9999 71.3614 45.664 70.4518 44.726C71.333 44.4703 72.413 44.5839 72.612 43.6459C72.7825 43.1343 72.4983 42.7933 70.9634 42.7933ZM62.5785 46.602C62.5785 44.8681 63.3743 43.7597 64.6819 43.7597C66.6715 43.7597 68.0074 47.2557 68.0074 49.9844C68.0074 51.6613 67.2115 52.8268 65.8472 52.8268C64.0565 52.8268 62.5785 49.6149 62.5785 46.602ZM85.9106 53.5941L85.2853 48.3358C84.8874 44.7544 82.386 42.509 78.6911 42.509C75.735 42.509 73.2338 43.7028 73.2338 45.7493C73.2338 46.7157 73.9159 47.341 74.9392 47.341C77.0708 47.341 76.4172 43.7028 78.6911 43.7028C80.4249 43.7028 80.8796 45.2945 81.2207 48.62L81.2491 48.9611C80.5102 48.4495 79.4585 48.1084 78.151 48.1084C75.3654 48.1084 72.9779 49.5865 73.0064 52.4288C73.0064 55.2711 75.2803 56.7207 78.35 56.7207C80.3112 56.7207 81.505 56.0102 82.1303 55.0721C82.3008 56.2944 83.0398 56.6071 84.66 56.6071C86.0243 56.6071 87.3887 56.4365 87.3887 55.7828C87.3887 55.0153 86.138 55.5554 85.9106 53.5941ZM79.6006 55.4701C78.151 55.4701 77.213 53.7363 77.213 51.775C77.213 50.3254 78.0942 49.3875 79.2879 49.3875C80.4533 49.3875 81.3628 50.2402 81.5334 51.9172L81.6187 52.912C81.7039 54.1911 80.908 55.4701 79.6006 55.4701ZM95.8342 42.509C93.9298 42.509 92.5939 43.5038 91.9686 45.3229V43.1911C91.9686 42.6512 91.7128 42.3101 91.0591 42.6227L87.6483 44.2144C87.2787 44.385 87.0513 44.6123 87.0513 44.8966V45.0103C87.0513 45.7209 88.3588 45.8062 88.3588 47.0568V53.7078C88.3588 54.9017 87.2503 55.129 87.2503 55.8396V55.9533C87.2503 56.266 87.5061 56.4365 87.904 56.4365H93.1623C93.5319 56.4365 93.7877 56.266 93.7877 55.9533V55.8396C93.7877 55.129 92.3665 54.9017 92.3665 53.7078V48.0232C92.3665 46.4598 92.7645 44.8966 93.873 44.8966C95.4078 44.8966 94.413 47.341 96.63 47.341C97.9944 47.341 98.4491 46.2894 98.4491 45.0955C98.4491 43.6459 97.5112 42.509 95.8342 42.509ZM105.068 56.7207C108.763 56.7207 110.697 54.4185 110.866 52.0877C110.923 51.4625 110.213 51.3488 109.872 51.8035C109.275 52.8268 108.195 53.7931 106.461 53.7931C103.562 53.7931 101.629 51.3203 101.629 47.54C101.629 45.4366 102.653 43.7597 104.272 43.7597C106.745 43.7312 106.574 47.7674 109.019 47.9095C110.326 47.9664 110.782 47.2273 110.782 46.4883C110.782 44.2713 108.167 42.4806 104.897 42.509C101.06 42.5375 97.735 45.2092 97.735 49.5865C97.735 53.4236 100.776 56.7207 105.068 56.7207ZM124.108 53.5941L123.483 48.3358C123.085 44.7544 120.584 42.509 116.889 42.509C113.933 42.509 111.431 43.7028 111.431 45.7493C111.431 46.7157 112.113 47.341 113.137 47.341C115.268 47.341 114.615 43.7028 116.889 43.7028C118.622 43.7028 119.077 45.2945 119.418 48.62L119.447 48.9611C118.707 48.4495 117.655 48.1084 116.348 48.1084C113.563 48.1084 111.175 49.5865 111.204 52.4288C111.204 55.2711 113.478 56.7207 116.548 56.7207C118.508 56.7207 119.702 56.0102 120.328 55.0721C120.498 56.2944 121.237 56.6071 122.857 56.6071C124.222 56.6071 125.586 56.4365 125.586 55.7828C125.586 55.0153 124.336 55.5554 124.108 53.5941ZM117.798 55.4701C116.348 55.4701 115.411 53.7363 115.411 51.775C115.411 50.3254 116.292 49.3875 117.485 49.3875C118.651 49.3875 119.56 50.2402 119.731 51.9172L119.816 52.912C119.901 54.1911 119.105 55.4701 117.798 55.4701ZM140.114 53.6794L139.773 48.5632C139.432 44.0439 136.931 42.509 134.344 42.509C132.412 42.509 130.905 43.3617 130.138 44.8113V43.2196C130.138 42.6796 129.825 42.2816 129.171 42.6227L125.789 44.2713C125.447 44.4418 125.221 44.5839 125.221 44.8681V44.9818C125.221 45.6925 126.613 45.8062 126.613 47.0852V53.7078C126.613 54.9301 125.391 55.1574 125.391 55.868V55.9817C125.391 56.266 125.647 56.465 126.044 56.465H131.332C131.729 56.465 131.985 56.266 131.985 55.9817V55.868C131.985 55.1574 130.763 54.9301 130.763 53.7078V47.2557C130.763 45.4082 131.644 44.1292 133.179 44.1292C134.686 44.1292 135.51 45.3798 135.652 48.4211L135.936 53.6794C135.993 54.9301 134.913 55.1574 134.913 55.868V55.9817C134.913 56.266 135.168 56.465 135.567 56.465H140.484C140.882 56.465 141.138 56.266 141.138 55.9817V55.868C141.138 55.1574 140.2 54.9301 140.114 53.6794ZM152.864 52.1161C152.324 52.9973 151.13 53.7647 149.624 53.7647C147.918 53.7647 146.611 52.8552 145.872 51.2919L152.182 48.4211C152.95 48.08 153.432 47.5116 153.432 46.5451C153.432 44.6692 151.784 42.509 148.061 42.509C144.337 42.509 141.182 45.3798 141.182 49.5012C141.182 53.8784 144.11 56.7207 148.061 56.7207C151.727 56.7207 153.66 54.0774 153.831 52.4288C153.859 51.8319 153.205 51.6898 152.864 52.1161ZM147.549 43.7597C149.084 43.7597 149.823 45.7777 149.823 46.8009C149.823 47.3979 149.595 47.8811 149.084 48.1368L145.417 49.9844C145.218 49.2454 145.132 48.4211 145.132 47.54C145.132 45.3798 146.043 43.7597 147.549 43.7597Z" fill="#8C87A6"/>
</svg>
