<svg width="37" height="21" viewBox="0 0 37 21" fill="none" xmlns="http://www.w3.org/2000/svg">
<path d="M12.0529 17.8182H9.36865C8.81637 17.8182 8.36865 17.3705 8.36865 16.8182V2C8.36865 1.44772 8.81637 1 9.36865 1H25.3292C25.8815 1 26.3292 1.44772 26.3292 2V16.8182C26.3292 17.3705 25.8815 17.8182 25.3292 17.8182H16.1976" stroke="black" stroke-width="1.4" stroke-linejoin="round"/>
<path d="M33.6975 17.8181H36.0002V10.1818C36.0002 6.86806 33.3139 4.18176 30.0002 4.18176H26.3291" stroke="black" stroke-width="1.4" stroke-linejoin="round"/>
<path d="M29.092 17.8182L24.9473 17.8182" stroke="black" stroke-width="1.4"/>
<path d="M5.60526 5.54541L1 5.54541" stroke="black" stroke-width="1.4" stroke-linecap="round" stroke-linejoin="round"/>
<path d="M5.60511 9.18176L1.9209 9.18176" stroke="black" stroke-width="1.4" stroke-linecap="round" stroke-linejoin="round"/>
<path d="M5.60544 12.8182H2.84229" stroke="black" stroke-width="1.4" stroke-linecap="round" stroke-linejoin="round"/>
<path d="M15.9577 18.2727C15.9577 19.3837 15.0426 20.3 13.8945 20.3C12.7464 20.3 11.8313 19.3837 11.8313 18.2727C11.8313 17.1616 12.7464 16.2454 13.8945 16.2454C15.0426 16.2454 15.9577 17.1616 15.9577 18.2727Z" stroke="black" stroke-width="1.4"/>
<path d="M33.4577 18.2727C33.4577 19.3837 32.5426 20.3 31.3945 20.3C30.2464 20.3 29.3313 19.3837 29.3313 18.2727C29.3313 17.1616 30.2464 16.2454 31.3945 16.2454C32.5426 16.2454 33.4577 17.1616 33.4577 18.2727Z" stroke="black" stroke-width="1.4"/>
</svg>
