<svg width="180" height="96" viewBox="0 0 180 96" fill="none" xmlns="http://www.w3.org/2000/svg">
<path d="M21.8111 57.7777C21.9423 57.7777 22.0267 57.6559 22.0641 57.4123C22.1204 57.1687 22.036 56.7282 21.8111 56.0911C21.7362 55.8475 21.5675 55.4164 21.3051 54.7979C21.0615 54.1795 20.771 53.4673 20.4337 52.6615C20.0964 51.8557 19.7497 51.0405 19.3936 50.2158C19.0563 49.3912 18.747 48.6322 18.4659 47.9388C18.1848 47.2454 17.9693 46.7207 17.8194 46.3646C17.5757 45.7274 17.3134 45.2777 17.0323 45.0153C16.7699 44.7529 16.5544 44.6217 16.3857 44.6217H22.1204C22.0079 44.6217 21.933 44.7529 21.8955 45.0153C21.858 45.2777 21.933 45.7274 22.1204 46.3646C22.2141 46.7019 22.364 47.1986 22.5701 47.8545C22.795 48.5104 23.0387 49.2506 23.301 50.0753C23.5821 50.8999 23.8633 51.7432 24.1444 52.6053C24.4442 53.4673 24.716 54.2638 24.9596 54.9947H24.9877C25.1939 54.2451 25.4187 53.4392 25.6624 52.5772C25.906 51.6963 26.1403 50.8437 26.3651 50.0191C26.59 49.1757 26.7868 48.4261 26.9555 47.7702C27.1429 47.1142 27.2741 46.627 27.349 46.3084C27.5177 45.6712 27.5833 45.2308 27.5458 44.9872C27.5083 44.7435 27.4427 44.6217 27.349 44.6217H33.5897C33.4773 44.6217 33.4023 44.7529 33.3648 45.0153C33.3273 45.2777 33.4023 45.7274 33.5897 46.3646C33.6834 46.7019 33.824 47.1986 34.0114 47.8545C34.1987 48.5104 34.4049 49.2506 34.6298 50.0753C34.8547 50.8999 35.089 51.7432 35.3326 52.6053C35.5762 53.4673 35.7918 54.2638 35.9791 54.9947H36.0073C36.2884 54.2451 36.5789 53.4392 36.8787 52.5772C37.1973 51.6963 37.5066 50.8437 37.8064 50.0191C38.1062 49.1757 38.3686 48.4261 38.5935 47.7702C38.8184 47.1142 38.9683 46.627 39.0433 46.3084C39.2119 45.7087 39.2776 45.2777 39.24 45.0153C39.2025 44.7529 39.137 44.6217 39.0433 44.6217H44.6374C44.5062 44.6217 44.3187 44.7435 44.0751 44.9872C43.8316 45.2308 43.5786 45.6618 43.3161 46.2803C43.185 46.6176 42.9694 47.1142 42.6696 47.7702C42.3698 48.4261 42.0417 49.157 41.6857 49.9628C41.3297 50.7686 40.9735 51.5746 40.6175 52.3804C40.2614 53.1862 39.9428 53.9171 39.6617 54.5731C39.3993 55.229 39.2119 55.735 39.0995 56.0911C38.9121 56.6908 38.8371 57.1218 38.8746 57.3842C38.9121 57.6466 38.987 57.7777 39.0995 57.7777H32.8307C32.9431 57.7777 33.0181 57.6466 33.0556 57.3842C33.0931 57.1218 33.0181 56.6908 32.8307 56.0911C32.7745 55.9224 32.662 55.5382 32.4934 54.9385C32.3434 54.3388 32.156 53.6173 31.9311 52.7739C31.7063 51.9119 31.472 51.0216 31.2284 50.1034C30.9848 49.1851 30.7505 48.3137 30.5256 47.4891H30.4413C30.2164 48.2762 29.9821 49.1195 29.7385 50.0191C29.4949 50.8999 29.2606 51.7619 29.0357 52.6053C28.8108 53.4299 28.6046 54.1608 28.4173 54.7979C28.2486 55.4164 28.1361 55.8475 28.0799 56.0911C27.9113 56.7095 27.8456 57.1499 27.8831 57.4123C27.9207 57.6559 27.9862 57.7777 28.0799 57.7777H21.8111ZM50.8802 58.0588C48.9125 58.0588 47.3663 57.7871 46.2419 57.2436C45.1362 56.7001 44.3585 55.9224 43.9087 54.9104C43.4589 53.8797 43.234 52.6521 43.234 51.2278C43.234 49.1101 43.8243 47.4328 45.005 46.1959C46.1857 44.9591 47.9942 44.3406 50.4305 44.3406C51.8547 44.3406 53.0073 44.5374 53.8881 44.9309C54.7877 45.3245 55.4718 45.8492 55.9402 46.5052C56.4087 47.1611 56.7273 47.892 56.896 48.6978C57.0834 49.4849 57.1771 50.2815 57.1771 51.0873V52.4085C57.1771 52.3523 56.9147 52.2961 56.39 52.2398C55.884 52.1649 55.022 52.1274 53.8038 52.1274H47.282C47.282 53.1581 47.5912 53.9359 48.2097 54.4606C48.8468 54.9666 49.8776 55.2196 51.3019 55.2196C52.5013 55.2196 53.5695 55.0791 54.5066 54.7979C55.4623 54.4981 56.1557 54.217 56.5868 53.9546V54.7979L56.8679 56.9344C56.5119 57.178 55.8278 57.431 54.8158 57.6934C53.8038 57.937 52.492 58.0588 50.8802 58.0588ZM48.3221 49.7098H53.1853C53.1853 49.2976 53.0916 48.8946 52.9042 48.5011C52.7356 48.1075 52.4545 47.7889 52.0609 47.5453C51.6673 47.2829 51.1238 47.1517 50.4305 47.1517C49.3998 47.1517 48.6595 47.3672 48.2097 47.7983C47.7599 48.2293 47.535 48.6791 47.535 49.1476C47.535 49.335 47.5912 49.4755 47.7037 49.5693C47.8161 49.663 48.0223 49.7098 48.3221 49.7098ZM63.9633 58.0588C62.6702 58.0588 61.7332 57.7871 61.1522 57.2436C60.5712 56.6814 60.2807 55.7724 60.2807 54.5168V47.4328H57.7507V44.6217C58.6129 44.6217 59.2875 44.5187 59.7747 44.3125C60.262 44.0876 60.6088 43.7034 60.8148 43.1599C61.021 42.6165 61.124 41.8575 61.124 40.8829H64.2725V44.6217H69.0795C68.9483 44.9965 68.8172 45.4651 68.6859 46.0273C68.5735 46.5708 68.5173 47.0393 68.5173 47.4328H64.2725V52.9707C64.2725 53.8328 64.3381 54.4231 64.4693 54.7417C64.6005 55.0604 64.9098 55.2196 65.3969 55.2196C65.7156 55.2196 66.0623 55.1072 66.437 54.8823C66.8306 54.6574 67.2055 54.3857 67.5615 54.0671C67.9363 53.7297 68.2456 53.4111 68.4892 53.1113V53.9827L68.7703 56.7095C68.4329 57.0093 67.8426 57.3092 66.9993 57.6091C66.1559 57.9089 65.1439 58.0588 63.9633 58.0588ZM69.4623 57.7777C69.5936 57.7777 69.7153 57.6466 69.8277 57.3842C69.959 57.1218 70.0245 56.6908 70.0245 56.0911V46.5895C70.0245 45.9898 69.959 45.5681 69.8277 45.3245C69.7153 45.0621 69.5936 44.9216 69.4623 44.9028C70.2869 44.9028 71.1303 44.8466 71.9923 44.7342C72.8544 44.603 73.5291 44.4718 74.0163 44.3406V45.4651L73.9601 45.9429L74.0163 45.9992C74.1476 45.793 74.3536 45.5681 74.6347 45.3245C74.9347 45.0621 75.3094 44.8372 75.7592 44.6498C76.2278 44.4437 76.7712 44.3406 77.3896 44.3406C78.308 44.3406 79.1232 44.4718 79.8353 44.7342C80.5475 44.9778 81.0536 45.2308 81.3533 45.4932L80.51 49.2601V50.1034C80.2288 49.7098 79.8447 49.3069 79.3574 48.8946C78.8889 48.4823 78.3642 48.1356 77.7832 47.8545C77.221 47.5734 76.64 47.4328 76.0403 47.4328C75.3656 47.4328 74.8596 47.6765 74.5223 48.1637C74.185 48.651 74.0163 49.4193 74.0163 50.4688V56.0911C74.0163 56.6908 74.0725 57.1218 74.185 57.3842C74.3162 57.6466 74.4474 57.7777 74.5785 57.7777H69.4623ZM86.611 58.0588C84.9244 58.0588 83.575 57.7309 82.563 57.0749C81.5697 56.4003 81.0732 55.3226 81.0732 53.8422C81.0732 52.8115 81.3354 51.9774 81.8603 51.3403C82.385 50.7031 83.0972 50.2345 83.9967 49.9347C84.915 49.6161 85.9551 49.4568 87.117 49.4568C88.4102 49.4568 89.4222 49.6068 90.153 49.9066C90.8839 50.2064 91.343 50.4126 91.5305 50.5251C91.5305 49.3631 91.3243 48.5104 90.912 47.9669C90.4997 47.4235 89.7033 47.1517 88.5226 47.1517C87.3793 47.1517 86.3673 47.2642 85.4866 47.4891C84.6057 47.7139 83.8843 47.9763 83.322 48.2762C82.7785 48.576 82.4037 48.829 82.1976 49.0352V48.1918L81.9165 45.4369C82.0476 45.362 82.3944 45.2402 82.9566 45.0715C83.5188 44.9028 84.2871 44.7435 85.2617 44.5936C86.2362 44.4249 87.3982 44.3406 88.7475 44.3406C90.6028 44.3406 92.0177 44.6123 92.9923 45.1558C93.9668 45.6806 94.632 46.4396 94.9882 47.4328C95.3629 48.4261 95.5504 49.6255 95.5504 51.0311V56.0911C95.5504 56.6158 95.6067 57 95.719 57.2436C95.8503 57.4685 95.9813 57.6466 96.1126 57.7777H91.5586V57.1874L91.6148 56.6533L91.5586 56.5971C91.2588 56.9157 90.6872 57.2436 89.8438 57.5809C89.0192 57.8996 87.9416 58.0588 86.611 58.0588ZM87.9323 55.2196C89.0941 55.2196 89.9844 55.0885 90.6028 54.8261C91.24 54.5449 91.5586 54.1889 91.5586 53.7578C91.5586 53.3268 91.2306 52.9707 90.5747 52.6896C89.9374 52.4085 89.066 52.2679 87.9604 52.2679C86.8922 52.2679 86.1332 52.4179 85.6834 52.7177C85.2523 53.0175 85.0368 53.3924 85.0368 53.8422C85.0368 54.4044 85.2898 54.7792 85.7958 54.9666C86.3018 55.1353 87.0139 55.2196 87.9323 55.2196ZM97.3011 57.7777C97.4324 57.7777 97.5541 57.6466 97.6665 57.3842C97.7978 57.1218 97.8633 56.6908 97.8633 56.0911V46.5895C97.8633 45.9898 97.7978 45.5681 97.6665 45.3245C97.5541 45.0621 97.4324 44.9216 97.3011 44.9028C98.1257 44.9028 98.9691 44.8466 99.8311 44.7342C100.693 44.603 101.368 44.4718 101.855 44.3406V46.0554L101.799 46.4208L101.855 46.4771C101.911 46.3459 102.089 46.1116 102.389 45.7743C102.689 45.4369 103.12 45.1183 103.682 44.8185C104.244 44.4999 104.938 44.3406 105.762 44.3406C107.505 44.3406 108.836 44.8372 109.754 45.8305C110.691 46.8238 111.16 48.3792 111.16 50.4969V56.0911C111.16 56.6908 111.216 57.1218 111.328 57.3842C111.46 57.6466 111.591 57.7777 111.722 57.7777H106.606C106.737 57.7777 106.859 57.6466 106.971 57.3842C107.102 57.1218 107.168 56.6908 107.168 56.0911V50.5813C107.168 49.2506 106.962 48.3511 106.549 47.8826C106.137 47.3953 105.612 47.1517 104.975 47.1517C104.169 47.1517 103.448 47.4422 102.811 48.0232C102.174 48.5854 101.855 49.5225 101.855 50.8343V56.0911C101.855 56.6908 101.911 57.1218 102.024 57.3842C102.155 57.6466 102.286 57.7777 102.417 57.7777H97.3011ZM119.951 58.0588C118.283 58.0588 116.877 57.9651 115.734 57.7777C114.591 57.5904 113.804 57.4029 113.373 57.2155V56.3722L112.782 53.6173C113.27 53.9733 114.179 54.3295 115.509 54.6855C116.84 55.0415 118.47 55.2196 120.401 55.2196C121.281 55.2196 121.89 55.1353 122.228 54.9666C122.584 54.7979 122.762 54.5074 122.762 54.0952C122.762 53.7765 122.64 53.5329 122.396 53.3643C122.172 53.1956 121.759 53.0645 121.16 52.9707C120.56 52.8583 119.688 52.7271 118.545 52.5772C117.102 52.3898 115.959 52.1274 115.116 51.7901C114.272 51.434 113.673 50.9842 113.317 50.4407C112.979 49.8785 112.811 49.1945 112.811 48.3886C112.811 47.639 112.989 46.9643 113.345 46.3646C113.719 45.7462 114.357 45.2589 115.256 44.9028C116.175 44.528 117.449 44.3406 119.079 44.3406C120.616 44.3406 121.965 44.4343 123.127 44.6217C124.289 44.8091 125.123 44.9965 125.629 45.1839V46.0273L126.191 48.5011C125.76 48.2199 124.917 47.9295 123.661 47.6296C122.406 47.3298 120.813 47.1798 118.883 47.1798C118.133 47.1798 117.599 47.2548 117.28 47.4047C116.962 47.5547 116.802 47.817 116.802 48.1918C116.802 48.4355 116.905 48.6416 117.112 48.8103C117.318 48.9602 117.721 49.1008 118.32 49.2319C118.939 49.3631 119.857 49.5131 121.075 49.6817C122.668 49.8879 123.868 50.1783 124.673 50.5532C125.479 50.9092 126.023 51.359 126.304 51.9025C126.585 52.4272 126.726 53.0645 126.726 53.8141C126.726 55.2571 126.182 56.3254 125.095 57.0187C124.008 57.7121 122.293 58.0588 119.951 58.0588ZM128.369 57.7777C128.5 57.7777 128.622 57.6466 128.734 57.3842C128.865 57.1218 128.931 56.6908 128.931 56.0911V47.4328H126.401V44.6217H129.212L129.24 44.5655C129.184 44.4718 129.072 44.1626 128.903 43.6378C128.734 43.0943 128.65 42.4572 128.65 41.7263C128.65 40.2458 129.072 39.1775 129.915 38.5216C130.777 37.8657 131.948 37.5377 133.429 37.5377C134.628 37.5377 135.687 37.6033 136.605 37.7345C137.524 37.8469 138.189 37.9688 138.602 38.0999V38.9714L139.164 42.0355C138.826 41.7919 138.385 41.5482 137.843 41.3046C137.317 41.0422 136.755 40.8267 136.156 40.6581C135.556 40.4707 134.956 40.3769 134.356 40.3769C133.757 40.3769 133.326 40.5175 133.063 40.7986C132.82 41.0797 132.698 41.492 132.698 42.0355V43.7784C132.698 44.1907 132.735 44.4343 132.81 44.5093C132.885 44.5842 133.138 44.6217 133.569 44.6217H137.786C137.655 44.7904 137.524 45.1183 137.392 45.6056C137.28 46.0741 137.224 46.6832 137.224 47.4328H132.979V56.0911C132.979 56.6908 133.035 57.1218 133.148 57.3842C133.279 57.6466 133.41 57.7777 133.541 57.7777H128.369ZM144.692 58.0588C142.724 58.0588 141.178 57.7871 140.054 57.2436C138.948 56.7001 138.17 55.9224 137.72 54.9104C137.271 53.8797 137.046 52.6521 137.046 51.2278C137.046 49.1101 137.636 47.4328 138.817 46.1959C139.997 44.9591 141.806 44.3406 144.242 44.3406C145.666 44.3406 146.819 44.5374 147.7 44.9309C148.599 45.3245 149.284 45.8492 149.752 46.5052C150.22 47.1611 150.539 47.892 150.708 48.6978C150.895 49.4849 150.989 50.2815 150.989 51.0873V52.4085C150.989 52.3523 150.726 52.2961 150.202 52.2398C149.696 52.1649 148.834 52.1274 147.615 52.1274H141.094C141.094 53.1581 141.403 53.9359 142.021 54.4606C142.658 54.9666 143.69 55.2196 145.114 55.2196C146.313 55.2196 147.381 55.0791 148.318 54.7979C149.274 54.4981 149.967 54.217 150.399 53.9546V54.7979L150.68 56.9344C150.324 57.178 149.64 57.431 148.628 57.6934C147.616 57.937 146.304 58.0588 144.692 58.0588ZM142.134 49.7098H146.997C146.997 49.2976 146.903 48.8946 146.716 48.5011C146.547 48.1075 146.266 47.7889 145.873 47.5453C145.479 47.2829 144.935 47.1517 144.242 47.1517C143.212 47.1517 142.471 47.3672 142.021 47.7983C141.572 48.2293 141.347 48.6791 141.347 49.1476C141.347 49.335 141.403 49.4755 141.515 49.5693C141.628 49.663 141.834 49.7098 142.134 49.7098ZM152.237 57.7777C152.369 57.7777 152.49 57.6466 152.602 57.3842C152.734 57.1218 152.799 56.6908 152.799 56.0911V46.5895C152.799 45.9898 152.734 45.5681 152.602 45.3245C152.49 45.0621 152.369 44.9216 152.237 44.9028C153.062 44.9028 153.905 44.8466 154.767 44.7342C155.63 44.603 156.304 44.4718 156.791 44.3406V45.4651L156.734 45.9429L156.791 45.9992C156.923 45.793 157.128 45.5681 157.409 45.3245C157.71 45.0621 158.084 44.8372 158.534 44.6498C159.003 44.4437 159.546 44.3406 160.164 44.3406C161.083 44.3406 161.898 44.4718 162.61 44.7342C163.322 44.9778 163.828 45.2308 164.128 45.4932L163.284 49.2601V50.1034C163.003 49.7098 162.619 49.3069 162.132 48.8946C161.664 48.4823 161.139 48.1356 160.558 47.8545C159.995 47.5734 159.415 47.4328 158.815 47.4328C158.14 47.4328 157.634 47.6765 157.297 48.1637C156.959 48.651 156.791 49.4193 156.791 50.4688V56.0911C156.791 56.6908 156.847 57.1218 156.959 57.3842C157.091 57.6466 157.222 57.7777 157.353 57.7777H152.237Z" fill="#8C87A6"/>
</svg>
