<svg width="30" height="30" viewBox="0 0 30 30" fill="none" xmlns="http://www.w3.org/2000/svg">
<path d="M5.66683 0.333313H1.66683C1.31321 0.333313 0.974068 0.473788 0.724019 0.723836C0.473971 0.973885 0.333496 1.31302 0.333496 1.66665V28.3333C0.333496 28.6869 0.473971 29.0261 0.724019 29.2761C0.974068 29.5262 1.31321 29.6666 1.66683 29.6666H5.66683V0.333313Z" fill="#D6B1FF"/>
<path d="M8.3335 29.6666H21.6668V0.333313H8.3335V29.6666ZM15.0002 24.3333C14.6465 24.3333 14.3074 24.1928 14.0574 23.9428C13.8073 23.6927 13.6668 23.3536 13.6668 23C13.6668 22.6464 13.8073 22.3072 14.0574 22.0572C14.3074 21.8071 14.6465 21.6666 15.0002 21.6666C15.3538 21.6666 15.6929 21.8071 15.943 22.0572C16.193 22.3072 16.3335 22.6464 16.3335 23C16.3335 23.3536 16.193 23.6927 15.943 23.9428C15.6929 24.1928 15.3538 24.3333 15.0002 24.3333ZM15.0002 5.66665C15.3538 5.66665 15.6929 5.80712 15.943 6.05717C16.193 6.30722 16.3335 6.64636 16.3335 6.99998C16.3335 7.3536 16.193 7.69274 15.943 7.94279C15.6929 8.19284 15.3538 8.33331 15.0002 8.33331C14.6465 8.33331 14.3074 8.19284 14.0574 7.94279C13.8073 7.69274 13.6668 7.3536 13.6668 6.99998C13.6668 6.64636 13.8073 6.30722 14.0574 6.05717C14.3074 5.80712 14.6465 5.66665 15.0002 5.66665ZM15.0002 13.6666C15.3538 13.6666 15.6929 13.8071 15.943 14.0572C16.193 14.3072 16.3335 14.6464 16.3335 15C16.3335 15.3536 16.193 15.6927 15.943 15.9428C15.6929 16.1928 15.3538 16.3333 15.0002 16.3333C14.6465 16.3333 14.3074 16.1928 14.0574 15.9428C13.8073 15.6927 13.6668 15.3536 13.6668 15C13.6668 14.6464 13.8073 14.3072 14.0574 14.0572C14.3074 13.8071 14.6465 13.6666 15.0002 13.6666Z" fill="#00798C"/>
<path d="M28.3335 0.333313H24.3335V29.6666H28.3335C28.6871 29.6666 29.0263 29.5262 29.2763 29.2761C29.5264 29.0261 29.6668 28.6869 29.6668 28.3333V1.66665C29.6668 1.31302 29.5264 0.973885 29.2763 0.723836C29.0263 0.473788 28.6871 0.333313 28.3335 0.333313Z" fill="#2EC5CE"/>
</svg>
