<svg width="30" height="30" viewBox="0 0 30 30" fill="none" xmlns="http://www.w3.org/2000/svg">
<path d="M11.0002 12.3333H1.66683C1.31321 12.3333 0.974068 12.1928 0.724019 11.9428C0.473971 11.6927 0.333496 11.3536 0.333496 11V1.66665C0.333496 1.31302 0.473971 0.973885 0.724019 0.723836C0.974068 0.473788 1.31321 0.333313 1.66683 0.333313H11.0002C11.3538 0.333313 11.6929 0.473788 11.943 0.723836C12.193 0.973885 12.3335 1.31302 12.3335 1.66665V11C12.3335 11.3536 12.193 11.6927 11.943 11.9428C11.6929 12.1928 11.3538 12.3333 11.0002 12.3333Z" fill="#00798C"/>
<path d="M11.0002 29.6666H1.66683C1.31321 29.6666 0.974068 29.5262 0.724019 29.2761C0.473971 29.0261 0.333496 28.6869 0.333496 28.3333V19C0.333496 18.6463 0.473971 18.3072 0.724019 18.0571C0.974068 17.8071 1.31321 17.6666 1.66683 17.6666H11.0002C11.3538 17.6666 11.6929 17.8071 11.943 18.0571C12.193 18.3072 12.3335 18.6463 12.3335 19V28.3333C12.3335 28.6869 12.193 29.0261 11.943 29.2761C11.6929 29.5262 11.3538 29.6666 11.0002 29.6666Z" fill="#00798C"/>
<path d="M16.3335 1.66663H29.6668V4.33329H16.3335V1.66663Z" fill="#2EC5CE"/>
<path d="M29.6668 19H16.3335V21.6667H29.6668V19Z" fill="#2EC5CE"/>
<path d="M29.6668 25.6666H16.3335V28.3333H29.6668V25.6666Z" fill="#D6B1FF"/>
<path d="M29.6668 8.33331H16.3335V11H29.6668V8.33331Z" fill="#D6B1FF"/>
</svg>
